<?xml version="1.0" encoding="UTF-8"?>
<svg id="_图层_1" data-name="图层 1" xmlns="http://www.w3.org/2000/svg" viewBox="0 0 1024 1024">
  <defs>
    <style>
      .cls-1 {
        fill: #0079ee;
      }

      .cls-1, .cls-2, .cls-3, .cls-4, .cls-5, .cls-6, .cls-7, .cls-8, .cls-9, .cls-10, .cls-11, .cls-12, .cls-13, .cls-14, .cls-15, .cls-16, .cls-17, .cls-18, .cls-19, .cls-20, .cls-21, .cls-22, .cls-23, .cls-24, .cls-25, .cls-26, .cls-27, .cls-28, .cls-29, .cls-30, .cls-31, .cls-32, .cls-33, .cls-34, .cls-35, .cls-36, .cls-37, .cls-38, .cls-39, .cls-40, .cls-41, .cls-42, .cls-43, .cls-44, .cls-45, .cls-46, .cls-47, .cls-48, .cls-49, .cls-50, .cls-51, .cls-52, .cls-53, .cls-54, .cls-55, .cls-56, .cls-57, .cls-58, .cls-59, .cls-60, .cls-61, .cls-62, .cls-63, .cls-64, .cls-65, .cls-66, .cls-67, .cls-68, .cls-69, .cls-70 {
        stroke-width: 0px;
      }

      .cls-2 {
        fill: #0088f1;
      }

      .cls-3 {
        fill: #0097f3;
      }

      .cls-4 {
        fill: #00b0f7;
      }

      .cls-5 {
        fill: #00adf7;
      }

      .cls-6 {
        fill: #006eec;
      }

      .cls-7 {
        fill: #006beb;
      }

      .cls-8 {
        fill: #b4e5fc;
      }

      .cls-9 {
        fill: #33bbf8;
      }

      .cls-10 {
        fill: #0094f3;
      }

      .cls-11 {
        fill: #00a7f6;
      }

      .cls-12 {
        fill: #0082f0;
      }

      .cls-13 {
        fill: #07e;
      }

      .cls-14 {
        fill: #0064ea;
      }

      .cls-15 {
        fill: #9ddcfb;
      }

      .cls-16 {
        fill: #00a8f6;
      }

      .cls-17 {
        fill: #009bf4;
      }

      .cls-18 {
        fill: #0078ee;
      }

      .cls-19 {
        fill: #0084f0;
      }

      .cls-20 {
        fill: #007def;
      }

      .cls-21 {
        fill: #009df4;
      }

      .cls-22 {
        fill: #00a0f5;
      }

      .cls-23 {
        fill: #0093f3;
      }

      .cls-24 {
        fill: #00b6f8;
      }

      .cls-25 {
        fill: #0062ea;
      }

      .cls-26 {
        fill: #00a2f5;
      }

      .cls-27 {
        fill: #00bef9;
      }

      .cls-28 {
        fill: #0083f0;
      }

      .cls-29 {
        fill: #fdfdfd;
      }

      .cls-30 {
        fill: #0074ed;
      }

      .cls-31 {
        fill: #00baf8;
      }

      .cls-32 {
        fill: #0072ed;
      }

      .cls-33 {
        fill: #007fef;
      }

      .cls-34 {
        fill: #007aee;
      }

      .cls-35 {
        fill: #0060e9;
      }

      .cls-36 {
        fill: #1ab5f8;
      }

      .cls-37 {
        fill: #00a4f5;
      }

      .cls-38 {
        fill: #0073ed;
      }

      .cls-39 {
        fill: #009af4;
      }

      .cls-40 {
        fill: #006fec;
      }

      .cls-41 {
        fill: #00a3f5;
      }

      .cls-42 {
        fill: #008ef2;
      }

      .cls-43 {
        fill: #0069eb;
      }

      .cls-44 {
        fill: #0087f1;
      }

      .cls-45 {
        fill: #0085f0;
      }

      .cls-46 {
        fill: #00a9f6;
      }

      .cls-47 {
        fill: #27b8f8;
      }

      .cls-48 {
        fill: #16abf6;
      }

      .cls-49 {
        fill: #5fc8f9;
      }

      .cls-50 {
        fill: #00b9f8;
      }

      .cls-51 {
        fill: #00b4f8;
      }

      .cls-52 {
        fill: #00b2f7;
      }

      .cls-53 {
        fill: #0095f3;
      }

      .cls-54 {
        fill: #0090f2;
      }

      .cls-55 {
        fill: #00abf6;
      }

      .cls-56 {
        fill: #00aaf6;
      }

      .cls-57 {
        fill: #03a8f6;
      }

      .cls-58 {
        fill: #008ff2;
      }

      .cls-59 {
        fill: #0067eb;
      }

      .cls-60 {
        fill: #007cef;
      }

      .cls-61 {
        fill: #00b7f8;
      }

      .cls-62 {
        fill: #0091f2;
      }

      .cls-63 {
        fill: #00aef7;
      }

      .cls-64 {
        fill: #009cf4;
      }

      .cls-65 {
        fill: #008bf1;
      }

      .cls-66 {
        fill: #008af1;
      }

      .cls-67 {
        fill: #006dec;
      }

      .cls-68 {
        fill: #fefefe;
      }

      .cls-69 {
        fill: #47c1f8;
      }

      .cls-70 {
        fill: #00b1f7;
      }
    </style>
  </defs>
  <path class="cls-66" d="M1023.9,161.07v3c-2.98,7.43-9.48,11.87-14.93,17.13-2.25,2.17-4.78,4.11-6.99,6.38-21.84,22.42-44.69,43.81-67.01,65.73-12.46,12.23-24.55,24.89-37.48,36.63-13.2,11.99-25.12,25.27-38.29,37.24-13.07,11.89-24.88,25.03-37.91,36.91-13.42,12.24-25.57,25.76-38.96,37.98-13.17,12.01-25.09,25.3-38.26,37.26-12.95,11.77-24.63,24.81-37.56,36.56-13.32,12.1-25.37,25.49-38.64,37.6-13.05,11.91-24.92,24.99-37.88,36.94-6.86,6.31-13.23,13.15-20.39,19.09-1.75,1.46-.75,3.39-2.21,4.49-1.72,1.37-3.79,1.21-5.76,1.22-15.16.13-30.32.19-45.48-.01-7.36-.1-8.82-2.37-6.48-9.35,16.04-12.43,28.83-28.29,43.83-41.82,12.26-11.05,23.27-23.35,35.41-34.47,14-12.84,26.8-26.88,40.8-39.68,12.05-11.02,23.01-23.13,35.02-34.15,14.36-13.17,27.5-27.6,41.86-40.74,12.3-11.25,23.47-23.61,35.74-34.84,13.76-12.6,26.3-26.45,40.07-38.99,12.44-11.34,23.72-23.84,36.12-35.17,14.01-12.82,26.75-26.93,40.76-39.71,12.68-11.57,24.18-24.33,36.84-35.87,13.42-12.24,25.58-25.75,38.98-37.96,10.97-9.99,21.17-20.72,31.83-30.99,2.27-2.19,4.51-4.73,8.23-2.74,5.11,7.46,6.18,16.11,7.23,24.75.71,5.84.66,11.75,1.52,17.58Z"/>
  <path class="cls-27" d="M161.07.1h67.99c1.34,2.36.15,4.24-1.38,5.83-4.97,5.14-9.79,10.45-15.35,14.98-1.55,1.27-3.07,2.56-4.45,3.99-22.15,22.8-45.33,44.56-68.06,66.78-12.97,12.67-25.54,25.77-38.92,38-12.66,11.58-24.13,24.36-36.8,35.89-13.92,12.67-26.7,26.49-40.43,39.32-5.71,5.34-11.33,10.76-17,16.14-1.81,1.72-3.71,3.54-6.57,2.04v-61.99c.86-6.22.97-12.51,1.58-18.75,1.1-11.24,5.09-21.66,9.31-31.97,9.58-23.42,23.53-43.96,41.72-61.52C76.18,26.17,103.71,10.58,135.44,2.76c6.93-1.71,14.16-1.6,21.27-2.17,1.45-.12,3,.47,4.35-.49Z"/>
  <path class="cls-31" d="M.1,223.05c1.51-1.01,3.2-1.84,4.5-3.07,9.04-8.59,18.06-17.2,26.97-25.93,20.44-20.03,40.5-40.46,61.34-60.07,12.85-12.09,24.78-25.12,37.86-36.93,13.23-11.95,25.05-25.33,38.25-37.25,13.36-12.06,25.41-25.42,38.59-37.62,5.86-5.42,11.66-10.89,17.35-16.48,1.68-1.65,3.17-3.41,4.09-5.61h63.99c1.32,3.33-1.4,4.85-3.13,6.68-14.9,15.71-31.07,30.14-46.35,45.47-19.04,19.11-38.55,37.74-57.92,56.51-12.43,12.05-24.32,24.66-37.14,36.29-13.34,12.09-25.33,25.54-38.62,37.64-12.7,11.56-24.16,24.37-36.83,35.9-13.81,12.57-26.35,26.41-40.08,39.01-9.09,8.34-17.66,17.17-26.56,25.68-1.72,1.65-3.25,4.07-6.32,2.78,0-21,0-41.99,0-62.99Z"/>
  <path class="cls-6" d="M631.98,1023.9h-67.99c-1.91-2.62-.02-4.36,1.51-6.06,3.89-4.35,8.65-7.8,12.72-11.93,22.08-22.39,44.93-43.99,67.41-65.96,13.67-13.37,26.91-27.21,41.04-40.08,12.07-10.99,22.95-23.16,34.99-34.14,14.03-12.78,26.93-26.7,40.76-39.66,5.52-5.17,10.8-10.69,17.05-15.09,21.59-.51,43.17-.71,64.73.09,4.42,2.39,2.4,5.27.27,7.71-3.61,4.14-7.41,8.16-11.65,11.64-4.01,3.29-7.67,6.9-11.28,10.58-20.52,20.91-41.88,40.97-62.83,61.44-12.61,12.33-24.77,25.15-37.82,37-13.45,12.21-25.54,25.79-38.97,37.96-12.73,11.52-24.45,24.02-36.74,35.97-4.06,3.95-8.44,7.47-13.2,10.54Z"/>
  <path class="cls-21" d="M.1,814.94v-46.99c9.33-10.66,20.06-19.89,30.05-29.88,22.12-22.13,44.82-43.67,67.16-65.57,12.71-12.46,25-25.38,38.15-37.36,13.3-12.12,25.33-25.52,38.61-37.61,12.82-11.66,24.4-24.57,37.19-36.21,13.56-12.33,25.85-25.94,39.37-38.26,10.72-9.76,20.62-20.32,31.12-30.28,2-1.9,2.84-5.01,5.94-5.77,17.92-3.51,35.86-6.85,53.93-9.48,1.17-.17,2.31-.26,3.41.25,3.09,2.38.63,4.1-.87,5.64-5.45,5.62-10.73,11.45-16.68,16.52-5.97,5.1-11.43,10.68-16.94,16.22-19.26,19.36-39.08,38.13-58.6,57.22-12.49,12.22-24.55,24.91-37.49,36.65-13.33,12.1-25.38,25.49-38.66,37.59-12.82,11.67-24.36,24.63-37.16,36.26-13.69,12.44-26.06,26.23-39.73,38.64-12.84,11.65-24.39,24.59-37.18,36.24-13.31,12.12-25.47,25.39-38.62,37.64-5.85,5.44-11.66,10.91-17.4,16.46-1.52,1.47-3.05,3.27-5.61,2.07Z"/>
  <path class="cls-26" d="M678.97.1h70.99c1.58,3.13-.52,5.1-2.4,6.93-6.67,6.5-12.73,13.65-20.18,19.33-.66.5-1.23,1.13-1.81,1.72-21.08,21.79-43.25,42.47-64.89,63.68-14.38,14.1-28.48,28.51-43.23,42.21-12.09,11.23-23.21,23.42-35.37,34.53-14.02,12.82-26.86,26.84-40.84,39.66-12.29,11.27-23.45,23.65-35.72,34.9-14.25,13.06-27.53,27.09-41.51,40.41-3.71,3.54-7.6,6.97-11.83,9.93-1.69,1.18-3.35,2.31-5.41.76-1.13-3.39,1.55-5.31,3.18-7.39,26.05-33.24,52.29-66.33,77.9-99.91,3.53-4.63,7.08-9.23,10.6-13.87.67-.89,1.89-1.74,1.08-3.02-.58-.93-1.79-.71-2.76-.72-5-.06-9.99.06-14.99-.08-3.5-.1-6.97-.38-10-2.45-1.81-3.02.08-5.11,1.99-6.97,6.06-5.91,11.62-12.35,18.33-17.6,3.26-2.56,6.01-5.75,8.92-8.71,20.26-20.66,41.31-40.52,62.02-60.71,12.62-12.3,24.81-25.04,37.81-36.93,11.06-10.11,21.39-20.91,32.09-31.37,1.82-1.78,3.95-3.01,6.05-4.35Z"/>
  <path class="cls-22" d="M287.04,489.16c-10.95,13.44-23.93,24.85-36.36,36.84-22.99,22.18-45.27,45.1-68.46,67.07-12.81,12.14-24.78,25.12-37.86,36.93-13.48,12.17-25.52,25.8-38.96,37.95-13.22,11.96-25.04,25.33-38.25,37.25-12.99,11.72-24.62,24.81-37.54,36.54-8.51,7.73-16.52,15.93-24.74,23.93-1.36,1.33-2.79,2.37-4.79,2.27v-52.99c4.42-7.42,11.18-12.67,17.3-18.5,1.19-1.13,2.61-2.05,3.77-3.25,21.08-21.74,43.28-42.34,64.89-63.55,14.48-14.21,28.64-28.77,43.52-42.55,12.22-11.31,23.42-23.64,35.7-34.84,13.78-12.57,26.46-26.24,40.05-38.96,5.44-5.09,10.84-10.22,16.29-15.31,11.06-2.94,22.45-4.05,33.67-6.07,8.62-1.55,17.25-3.12,25.96-4.21,2.07-.26,4.35-.97,5.81,1.43Z"/>
  <path class="cls-59" d="M1023.9,710.96v45.99c-4.15,6.76-10.03,11.91-15.97,16.98-1.91,1.63-3.73,3.32-5.47,5.11-22.08,22.64-45.19,44.24-67.77,66.38-12.47,12.22-24.55,24.88-37.48,36.62-13.45,12.21-25.56,25.76-38.98,37.95-12.45,11.32-23.68,23.87-36.1,35.18-13.91,12.68-26.58,26.62-40.4,39.35-8.82,8.13-17.25,16.62-25.75,25.06-1.82,1.81-4.23,2.62-6.05,4.33h-46.99c-1.81-2.35-.33-4.18,1.19-5.69,8.4-8.31,16.22-17.22,25.39-24.74,1.81-1.48,3.42-3.17,5.05-4.84,21.88-22.4,44.73-43.82,67.07-65.76,12.59-12.36,24.82-25.12,37.88-36.99,13.33-12.11,25.37-25.51,38.65-37.62,12.94-11.8,24.62-24.85,37.54-36.63,13.8-12.58,26.34-26.43,40.13-38.97,11.72-10.66,22.33-22.42,33.96-33.13,9.43-8.7,18.49-17.76,27.67-26.7,1.72-1.68,3.52-3.89,6.42-1.87Z"/>
  <path class="cls-24" d="M340.03.1h37.99c1.81,2.35.33,4.18-1.19,5.69-8.98,8.91-17.42,18.37-27.12,26.53-.89.75-1.78,1.51-2.59,2.35-18.99,19.63-39.11,38.11-58.5,57.33-16.2,16.05-32.4,32.12-48.95,47.8-12.7,12.03-24.62,24.84-37.54,36.61-13.55,12.35-25.81,26-39.33,38.34-12.43,11.36-23.71,23.87-36.12,35.2-13.91,12.69-26.6,26.63-40.48,39.32-11.93,10.91-22.78,22.9-34.65,33.84-14.46,13.32-28.05,27.51-42.21,41.12-2.42,2.33-4.76,6.02-9.25,3.8v-36.99c2.98-5.11,7.07-9.18,11.82-12.64.81-.59,1.51-1.31,2.2-2.03,17.8-18.46,36.74-35.75,54.91-53.83,17.7-17.61,35.65-34.97,53.61-52.29,12.34-11.9,24.1-24.41,36.77-35.93,13.57-12.33,25.82-25.98,39.35-38.3,12.57-11.44,23.91-24.13,36.46-35.54,13.81-12.55,26.29-26.46,40.05-39.01,12.68-11.57,24.23-24.27,36.82-35.89,7.59-7,15-14.16,22.26-21.49,1.69-1.71,4.04-2.32,5.69-3.99Z"/>
  <path class="cls-39" d="M.1,862.93v-9c4.86-7.93,11.89-13.93,18.66-20,10.81-9.69,20.47-20.52,31.11-30.35,15.29-14.14,29.52-29.38,44.76-43.54,11.97-11.12,23.03-23.15,35.06-34.16,14.14-12.94,27.08-27.11,41.18-40.05,12.16-11.17,23.24-23.4,35.38-34.54,14.12-12.96,27.08-27.11,41.17-40.07,12.39-11.4,23.7-23.9,36.12-35.22,13.68-12.47,26.11-26.2,39.75-38.66,12.81-11.7,24.46-24.55,37.22-36.24,10.92-10.01,21.2-20.65,31.91-30.86.61-.59,1.32-1.01,2.13-1.28,11.12-2.7,22.47-4.04,33.73-5.92.98-.16,1.98.12,2.87.62,2.3,1.57,1.48,3.43.34,5.18-1.09,1.68-2.66,2.96-4.06,4.39-22.63,23.24-46.41,45.31-69.44,68.15-9.79,9.7-19.73,19.29-29.65,28.88-1.82,1.76-2.98,3.5-1.89,6.06-.78,2.7-3.05,2.72-5.21,2.8-4.47.18-8.95.04-13.97.1,1.91,1.67,3.99,2.74,4.47,5.08.1,2.63-1.66,4.24-3.28,5.9-21.79,22.21-44.52,43.48-66.66,65.34-8.04,7.93-16.25,15.72-24.32,23.64-17.32,17.03-34.68,34.02-52.2,50.84-11.77,11.29-22.91,23.21-34.93,34.21-14.01,12.81-26.85,26.82-40.8,39.65-12.38,11.39-23.67,23.87-36.07,35.2-14.02,12.81-27.08,26.56-40.71,39.74-2.68,2.6-5.44,5.73-9.96,3.56-2.48-4.59-1.32-9.73-2.18-14.57-.28-1.6.45-3.32-.51-4.86Z"/>
  <path class="cls-51" d="M.1,368.03c3.26-1.06,5.74-3.33,8.09-5.64,22.68-22.27,45.04-44.86,68.03-66.79,13.85-13.21,26.98-27.15,41.08-40.06,12.53-11.48,23.87-24.14,36.45-35.52,13.71-12.41,26.02-26.24,39.69-38.63,11.12-10.07,21.19-21.16,32.17-31.33,15.27-14.13,29.46-29.38,44.69-43.51,12.34-11.44,23.63-23.91,36.08-35.19,13.83-12.53,26.28-26.44,40.06-38.97,9.74-8.86,18.75-18.41,28.24-27.49,1.43-1.36,3.07-2.63,3.34-4.82h31.99c2.02,2.9-.19,4.7-1.87,6.42-6.52,6.66-13.24,13.1-20.12,19.41-8.84,8.09-16.83,17.11-25.6,25.27-15.36,14.3-29.74,29.61-45.08,43.9-11.95,11.14-22.97,23.19-35.01,34.2-14.02,12.83-26.83,26.88-40.82,39.69-12.66,11.6-24.2,24.32-36.85,35.89-13.77,12.6-26.3,26.46-40.05,39.04-12.06,11.03-23.02,23.14-35.05,34.16-14.26,13.05-27.34,27.31-41.56,40.36-11.18,10.26-21.4,21.46-32.51,31.74-15.05,13.91-29.32,28.6-43.9,42.98-2.03,2-4.41,3.54-6.57,5.36-1.43,1.2-3.11,2.08-4.93.52v-30.99Z"/>
  <path class="cls-11" d="M.1,656.97v-48.99c2.2-4,5.2-7.25,8.99-9.82,1.1-.74,1.98-1.78,2.9-2.74,22.24-22.94,45.68-44.67,68.45-67.07,12.92-12.71,25.47-25.84,38.88-38.03,12.7-11.54,24.17-24.32,36.85-35.83,13.81-12.54,26.28-26.45,40.02-39.01,12.78-11.69,24.48-24.47,37.16-36.23,7.07-6.56,14.04-13.23,20.95-19.95,2.22-2.16,4.67-3.95,7.93-1.76,1.1,1.58.43,3.19-.12,4.69-2.72,7.35-4.61,14.98-7.66,22.2-.97,1.48-1.89,2.99-1.87,4.86-.69,3.84-2.73,7.28-3.36,11.14-.82,1.44-1.53,2.91-1.69,4.59-3.31,8.96-5.42,18.35-9.56,27.01-2.95.86-5.13,2.81-7.26,4.92-16.88,16.76-34.01,33.27-51.09,49.81-12.9,12.5-25.25,25.58-38.53,37.67-12.81,11.66-24.38,24.57-37.18,36.2-13.81,12.55-26.29,26.43-40.06,38.97-12.81,11.66-24.46,24.48-37.16,36.22-6.84,6.32-13.47,12.86-20.19,19.3-1.75,1.67-3.53,3.84-6.42,1.86Z"/>
  <path class="cls-30" d="M1023.9,479.01v44.99c-3.21,6.02-8.45,10.24-13.36,14.68-2.95,2.68-5.99,5.26-8.78,8.12-21.5,22.02-44.02,43-65.96,64.58-12.32,12.12-24.3,24.64-37.08,36.27-13.43,12.21-25.6,25.69-38.99,37.9-13.16,12.01-25.08,25.27-38.2,37.28-13.62,12.48-26.44,25.73-39.5,38.76-.72.72-1.6,1.18-2.63,1.35-14.63.38-29.25.75-43.85-.18-3.93-2.26-1.96-4.76-.01-6.87,4.4-4.77,8.89-9.51,13.85-13.69,3.57-3.02,6.96-6.19,10.21-9.53,20.68-21.23,42.37-41.44,63.52-62.19,12.71-12.47,25.06-25.33,38.2-37.34,13.29-12.14,25.32-25.56,38.64-37.62,13.1-11.86,24.83-25.09,37.89-36.95,12.96-11.76,24.7-24.76,37.58-36.55,13.77-12.6,26.49-26.24,40.02-39.06,2.31-2.19,4.43-5.22,8.45-3.97Z"/>
  <path class="cls-21" d="M789.95.1h30.99c1.43,2.61-.04,4.56-1.71,6.2-10.32,10.15-19.94,21-31.04,30.35-.76.64-1.5,1.33-2.19,2.04-19.55,20.23-40.21,39.32-60.24,59.06-16,15.77-31.88,31.67-48.2,47.08-12.23,11.54-23.66,23.9-36.07,35.21-13.66,12.46-26.08,26.18-39.7,38.64-12.91,11.8-24.63,24.81-37.52,36.58-13.66,12.47-26.06,26.2-39.7,38.64-12.32,11.23-23.42,23.66-35.76,34.81-11.25,10.16-21.44,21.38-32.77,31.43-1.41,1.25-1.46,2.91-2.35,4.26-3.85,3.92-9.29,4.1-14.04,5.83-10.28,3.73-20.6,7.35-30.97,10.84-2.02.68-4.07,1.56-6.27.65-2.6-2.52-.86-4.64.87-6.41,11.05-11.33,21.94-22.86,33.64-33.5,10.12-9.2,19.3-19.33,29.33-28.58,15.92-14.69,30.68-30.56,46.53-45.29,11.97-11.12,23-23.17,35.02-34.19,13.89-12.72,26.59-26.66,40.44-39.38,12.41-11.39,23.71-23.88,36.13-35.2,14.17-12.92,27.05-27.14,41.18-40.05,12.43-11.36,23.7-23.88,36.12-35.21,13.55-12.36,25.84-25.99,39.35-38.34,12.68-11.59,24.44-24.07,36.77-35.98,3.72-3.6,7.67-6.89,12.15-9.5Z"/>
  <path class="cls-52" d="M.1,399.02c4.13-1.63,7.15-4.84,10.18-7.8,22.87-22.32,45.31-45.08,68.44-67.12,13.74-13.09,26.74-26.94,40.74-39.72,11.08-10.11,21.18-21.18,32.17-31.34,14.91-13.79,28.76-28.68,43.64-42.46,12.95-12,24.79-25.12,37.86-36.95,13.47-12.19,25.54-25.79,38.98-37.95,12.85-11.63,24.35-24.62,37.18-36.21,13.48-12.18,25.53-25.8,38.98-37.95,12.74-11.51,24.25-24.24,36.81-35.89,7.32-6.79,14.6-13.6,21.6-20.72,1.39-1.41,3.07-2.63,3.34-4.82h27.99c1.09,2.04-.51,3.08-1.64,4.21-11.64,11.68-22.93,23.74-35.09,34.86-9.84,9-18.85,18.8-28.62,27.82-16.02,14.8-30.9,30.78-46.86,45.62-12.45,11.57-23.87,24.16-36.43,35.56-14.07,12.76-26.76,26.92-40.76,39.7-8.49,7.75-16.84,15.65-24.63,24.04-16.09,17.31-33.44,33.34-50.31,49.84-12.96,12.68-25.43,25.89-38.88,38.03-13.12,11.84-24.85,25.07-37.93,36.88-13.49,12.17-25.5,25.84-38.94,37.98-12.87,11.62-24.43,24.53-37.17,36.22-5.51,5.06-10.89,10.24-16.33,15.37-1.22,1.15-2.53,2.37-4.3.79v-27.99Z"/>
  <path class="cls-14" d="M749.95,1023.9c.19-1.6,1.19-2.7,2.27-3.77,20.54-20.19,40.91-40.56,61.72-60.47,5.4-5.16,10.88-10.27,16.22-15.51,19.63-19.22,38.87-38.85,58.9-57.63,12.64-11.85,24.33-24.66,37.17-36.26,13.74-12.4,26.02-26.27,39.7-38.67,12.85-11.64,24.5-24.47,37.18-36.24,5.85-5.43,11.75-10.81,17.37-16.49.96-.97,2.01-1.75,3.41-1.92v43.99c-2.13,4.04-5.46,7.06-8.6,10.26-19.71,20.08-40.23,39.33-60.36,58.98-12.86,12.55-25.26,25.6-38.55,37.69-13.31,12.11-25.34,25.52-38.64,37.6-13.08,11.88-24.85,25.07-37.91,36.92-12.84,11.65-24.72,24.23-37.06,36.36-2.33,2.29-5.11,3.61-7.84,5.16h-44.99Z"/>
  <path class="cls-32" d="M777.95,813.11c-1.93,4.66-6.02,7.51-9.57,10.62-3.25,2.85-6.42,5.77-9.5,8.8-21.58,21.23-42.83,42.81-64.85,63.59-13.07,12.34-25.24,25.59-38.55,37.63-13.34,12.07-25.28,25.56-38.6,37.58-12.86,11.61-24.59,24.33-37.1,36.27-4.2,4.01-8.55,7.87-12.8,11.84-1.33,1.24-2.75,2.46-2.98,4.46h-50.99c-1.42-2.61.03-4.56,1.71-6.2,11.44-11.14,22.02-23.17,34.21-33.54.76-.65,1.49-1.33,2.18-2.05,19.25-19.82,39.48-38.64,59.19-57.99,15.91-15.62,31.63-31.45,47.85-46.72,12.85-12.1,24.85-25.05,37.85-36.95,10.18-9.31,19.69-19.28,29.78-28.68.49-.46,1.15-.65,1.82-.81,15.1-.67,30.19-.31,45.27-.2,1.97.01,4.07.1,5.09,2.34Z"/>
  <path class="cls-19" d="M242.05,1023.9h-51.99c-1.63-3.4.7-5.47,2.82-7.21,8.91-7.31,16.42-16.05,24.73-23.96,17.23-16.42,33.91-33.41,51.13-49.82,11.81-11.26,22.96-23.19,35-34.17,13.91-12.68,26.55-26.65,40.41-39.35,12.78-11.71,24.37-24.61,37.22-36.19,8.11-7.32,15.27-15.66,24.09-22.21,16.02-.5,32.02-.74,48.01.11,3.14,1.42,2.92,3.71,1.44,6.15-1.04,1.71-2.64,2.98-4.03,4.42-21.43,22.09-43.96,43.07-65.92,64.62-12.46,12.23-24.56,24.85-37.44,36.61-13.28,12.12-25.38,25.44-38.61,37.58-13.26,12.15-25.42,25.39-38.6,37.59-7.69,7.12-15.19,14.42-22.56,21.86-1.69,1.71-4.04,2.31-5.69,3.98Z"/>
  <path class="cls-44" d="M1023.9,184.06v28.99c-6.28,9.58-14.99,16.93-23.28,24.54-9.94,9.13-19.01,19.11-28.91,28.25-15.54,14.34-29.96,29.83-45.43,44.2-11.96,11.11-23,23.13-35.03,34.13-14.37,13.15-27.53,27.55-41.84,40.72-12.51,11.51-23.89,24.13-36.43,35.54-13.56,12.33-25.81,25.97-39.33,38.3-12.56,11.45-23.92,24.11-36.46,35.53-13.92,12.68-26.54,26.66-40.41,39.34-13.26,12.14-25.62,25.17-38.49,37.69-.63.61-1.33.97-2.19,1.09-3.91-.08-7.55,1.56-11.42,1.72-5.82.03-11.65.67-17.43-.45-2.63-1.49-2.05-3.5-.75-5.48,1.01-1.53,2.44-2.73,3.71-4.04,21.26-21.83,43.53-42.64,65.3-63.95,11.77-11.53,23.17-23.46,35.32-34.57,14.02-12.82,26.82-26.88,40.82-39.67,12.18-11.14,23.25-23.38,35.36-34.53,14.22-13.09,27.32-27.33,41.54-40.37,12.29-11.27,23.46-23.64,35.74-34.86,13.78-12.59,26.31-26.45,40.08-39,12.81-11.68,24.44-24.54,37.19-36.23,13.64-12.5,26.19-26.08,39.69-38.69,5.72-5.34,11.39-10.71,17.03-16.12,1.53-1.47,3.05-3.27,5.61-2.07Z"/>
  <path class="cls-60" d="M1023.9,367.03v27.99c-1.55,2.17-3.39,4.07-5.26,5.97-21.09,21.55-43.13,42.14-64.65,63.24-13.2,12.94-26.03,26.28-39.67,38.73-12.56,11.47-23.91,24.16-36.47,35.57-13.45,12.23-25.6,25.77-39.01,37.99-13.07,11.91-24.88,25.07-37.92,36.96-13.56,12.36-25.86,25.98-39.4,38.3-12.58,11.45-23.95,24.12-36.49,35.56-13.55,12.36-25.83,26.01-39.37,38.33-12.93,11.77-24.76,24.62-37.56,36.5-.36.34-.87.49-1.35.66-8.83.54-17.66.82-26.46-.13-3.65-2.21-2.37-4.77-.17-6.94,24.64-24.32,49.61-48.3,74.29-72.57,6.39-6.28,13.01-12.38,19.37-18.71,18.64-18.55,37.59-36.79,56.47-55.1,12.31-11.93,24.1-24.4,36.75-35.95,13.54-12.35,25.83-25.97,39.38-38.27,12.46-11.32,23.7-23.86,36.06-35.23,14.09-12.96,27.11-27.02,41.17-39.98,12-11.07,22.96-23.19,35.01-34.17,14.04-12.79,26.98-26.69,40.79-39.68,6.06-5.7,12.01-11.5,18.06-17.21,1.75-1.65,3.53-3.88,6.42-1.86Z"/>
  <path class="cls-55" d="M.1,572.99v-36.99c3.52-6.42,9.2-10.92,14.43-15.74,2.81-2.58,5.75-5.04,8.42-7.77,21.52-22.02,44.01-43.05,65.98-64.62,12.7-12.47,25.01-25.36,38.21-37.3,12.85-11.63,24.4-24.57,37.17-36.22,13.66-12.46,26.04-26.23,39.69-38.65,12.94-11.78,24.64-24.8,37.54-36.56,13.3-12.12,25.53-25.3,38.57-37.66,4.22-4,8.75-7.67,12.85-11.81.83-.83,1.79-1.5,2.91-1.89,3.27-1.13,5.22.46,4.68,3.89-.34,2.15-1.11,4.17-2.17,6.07-1.53,2.36-2.38,4.97-2.78,7.74-1.27,5.27-2.86,10.43-4.91,15.45-1.98,2.17-2.69,4.86-3.1,7.67-.83,4.13-2.28,8.05-3.76,11.97-.48,1.42-1.14,2.75-2.11,3.91-2.58.44-4.13,2.11-5.85,4.03-6.33,7.06-12.99,13.83-20.15,20.06-2.26,1.97-4.5,3.95-6.58,6.09-21.5,22.04-43.97,43.08-65.97,64.61-12.83,12.56-25.25,25.58-38.52,37.68-13.18,12-25.1,25.27-38.25,37.24-13.06,11.89-24.86,25.04-37.89,36.9-13.06,11.89-24.94,24.95-37.89,36.9-8.08,7.45-15.83,15.2-23.72,22.83-1.83,1.77-3.63,4.23-6.78,2.21Z"/>
  <path class="cls-35" d="M1023.9,841.94v21c-.86,6.22-.97,12.51-1.58,18.75-1.1,11.24-5.09,21.66-9.31,31.97-9.58,23.42-23.53,43.96-41.72,61.52-23.47,22.66-51,38.24-82.74,46.06-6.93,1.71-14.16,1.61-21.27,2.17-1.45.12-3-.47-4.35.49h-26c-1.5-2.87.19-4.94,2.07-6.55,15.47-13.21,28.45-28.99,43.9-42.22.76-.65,1.49-1.34,2.18-2.06,21.79-22.49,44.78-43.76,67.06-65.76,13.74-13.56,27.31-27.33,41.48-40.45,7.82-7.25,15.28-14.84,22.98-22.2,2-1.91,3.91-4.39,7.3-2.74Z"/>
  <path class="cls-2" d="M404.02,813.11c-3.52,6.4-9.2,10.94-14.49,15.59-11.51,10.13-21.62,21.66-32.86,32.02-14.68,13.53-28.26,28.19-42.9,41.73-12.47,11.53-23.85,24.14-36.42,35.51-13.95,12.63-26.48,26.69-40.37,39.32-12.94,11.76-24.87,24.51-37.41,36.64-3.3,3.19-7.84,5.23-9.51,9.98h-28.99c-5.48-1.17-11.2-.19-16.61-1.88-2.71-2.66-.95-4.9.88-6.87,4.19-4.51,8.4-9.05,13.1-13.01,7.9-6.67,14.92-14.24,22.23-21.49,17.71-17.57,35.7-34.85,53.59-52.24,12.52-12.17,24.56-24.85,37.46-36.6,13.3-12.11,25.31-25.52,38.6-37.58,14.9-13.53,28.52-28.33,43.13-42.13.62-.58,1.36-.94,2.21-1.13,14.44-.68,28.87-.31,43.3-.2,1.97.01,4.07.1,5.09,2.34Z"/>
  <path class="cls-45" d="M656.98,570.89c.96-2.17,2.46-3.92,4.14-5.57,22.31-21.95,44.29-44.25,67.03-65.75,12.47-11.79,24.09-24.42,36.81-35.91,13.48-12.18,25.56-25.79,39-37.96,12.97-11.76,24.59-24.87,37.55-36.58,13.61-12.29,25.77-26.05,39.34-38.32,12.99-11.74,24.59-24.87,37.56-36.58,13.36-12.07,25.3-25.58,38.64-37.61,12.75-11.51,24.17-24.34,36.84-35.88,8.75-7.97,17-16.4,25.51-24.6,1.29-1.24,2.99-2.06,4.5-3.08v30.99c-17.98,15.61-33.74,33.54-51.57,49.3-.62.55-1.22,1.14-1.8,1.73-22.28,22.92-45.66,44.72-68.48,67.1-13.19,12.93-25.98,26.29-39.62,38.73-12.44,11.34-23.68,23.89-36.1,35.2-14.05,12.79-26.77,26.92-40.77,39.71-12.31,11.24-23.47,23.62-35.75,34.84-13.91,12.69-26.65,26.56-40.45,39.32-7.81,7.22-15.48,14.48-22.24,22.71-3.19.8-6.49.44-9.7,1.05-5.33-.8-10.65-1.55-16.07-1.29-1.61.08-3.33.1-4.38-1.55Z"/>
  <path class="cls-5" d="M289.17,280c1.62-4.97,3.24-9.94,4.86-14.91,1.28-2.57,1.72-5.46,3.01-8.03.76-2.63,3.6-6.44,1.68-7.64-2.9-1.82-4.73,2.5-6.83,4.35-14.6,12.89-27.61,27.45-41.91,40.62-12.87,11.85-24.55,24.87-37.51,36.57-13.6,12.28-25.75,26.03-39.31,38.29-12.98,11.73-24.57,24.85-37.53,36.55-13.35,12.06-25.29,25.55-38.6,37.59-12.98,11.73-24.57,24.85-37.53,36.55-13.6,12.28-25.72,26.06-39.36,38.23-6.67,5.95-12.15,13.27-20.04,17.84v-31.99c19.27-19.08,38.97-37.73,58.35-56.71,14.62-14.33,28.97-28.95,43.96-42.87,11.11-10.32,21.41-21.43,32.52-31.72,15.16-14.02,29.21-29.19,44.33-43.21,12.46-11.56,23.85-24.19,36.45-35.56,13.61-12.29,25.78-26.03,39.35-38.3,12.86-11.63,24.32-24.68,37.24-36.17,8.2-7.28,15.42-15.49,23.49-22.85.35-.32.41-.9.51-1.4.68-2.17,1.41-4.31,2.79-6.17,1.8-1.57,3.37-1.85,4.42.79,1.08,2.38.03,4.6-.71,6.75-11.34,32.78-22.4,65.66-33.8,98.42-.65,1.86-1.22,3.83-3.01,5.05-1.31.72-2.63,1.1-3.93-.01,1.85-3.8,3.13-7.79,3.98-11.92,1.35-2.59,1.62-5.59,3.14-8.12Z"/>
  <path class="cls-46" d="M.1,572.99c1.8-.2,2.92-1.46,4.12-2.62,8.02-7.74,15.96-15.54,24.01-23.25,22.96-21.98,45.11-44.8,68.15-66.7,13.52-12.84,26.23-26.51,40.02-39.03,11.85-10.76,22.57-22.62,34.31-33.44,14.57-13.43,28.03-27.99,42.57-41.42,12.49-11.53,23.92-24.11,36.45-35.54,9.11-8.31,17.76-17.04,26.52-25.69,1.4-1.38,2.75-2.48,4.78-1.27.72.86.56,1.78.18,2.72-1.36,2.5-2.25,5.15-2.67,7.97-1.58,4.91-2.98,9.88-5.03,14.63-1.72,3.63-3.84,7.11-4.06,11.28-1.17,4.75-2.95,9.31-4.5,13.94-.49,1.47-.74,3.33-2.91,3.46-2.54-.26-4.39.89-6.17,2.63-12.71,12.47-25.52,24.85-38.25,37.3-17.49,17.11-34.62,34.62-52.53,51.29-12.81,11.92-24.57,24.9-37.54,36.6-13.24,11.96-25.08,25.33-38.28,37.27-13.11,11.86-24.83,25.11-37.92,36.93-13.49,12.18-25.69,25.64-38.99,37.98-3.83,3.55-7.3,7.74-12.27,9.95v-34.99Z"/>
  <path class="cls-43" d="M1023.9,710.96c-1.8.2-2.92,1.46-4.12,2.62-8.38,8.08-16.66,16.26-25.07,24.31-23.09,22.08-45.34,45.05-68.51,67.05-13.64,12.95-26.45,26.76-40.36,39.39-12.83,11.66-24.34,24.63-37.18,36.22-13.36,12.06-25.3,25.55-38.62,37.6-12.98,11.74-24.58,24.86-37.54,36.56-13.73,12.4-26.02,26.25-39.69,38.65-9.14,8.29-17.61,17.2-26.49,25.72-1.42,1.37-3.08,2.63-3.34,4.82h-16c-1.91-2.62-.1-4.46,1.52-6.05,7.83-7.69,15.35-15.66,23.57-22.98,9.56-8.51,18.04-18.21,27.41-26.94,14.98-13.95,28.92-28.96,43.92-42.86,12.7-11.77,24.4-24.54,37.17-36.19,13.65-12.46,26.03-26.21,39.65-38.65,12.05-11.01,23.2-22.9,35.03-34.1,1.48-1.4,2.2-3.3,3.77-4.55,2.74-1.15,5.67-1.86,8.21-3.52,3-1.96,4.92-5.02,5.01-8.25.28-10.04,2.05-20.2-1.34-30.09-.33-.96-.48-1.93-.35-2.94.31-1.71,1.32-3.01,2.54-4.18,21.16-20.4,42.14-41,63.28-61.42,13.38-12.93,26.44-26.17,39.87-39.04,2.09-2.01,4.08-4.64,7.68-3.18v51.99Z"/>
  <path class="cls-20" d="M374.03,1023.9h-42.99c-1.8-2.35-.34-4.18,1.19-5.69,9.47-9.35,18.34-19.33,28.59-27.88,2.43-2.03,4.6-4.34,6.8-6.62,20.95-21.67,43.11-42.11,64.57-63.27,12.68-12.5,25.06-25.34,38.21-37.34,13.42-12.25,25.56-25.79,39-37.96,10.5-9.52,20.14-19.87,30.46-29.55,1.55-1.45,1.96-4,4.43-4.52,13.74-.67,27.48-.79,41.2.04,4.3,2.49,2.38,5.28.09,7.69-6.42,6.75-12.77,13.62-19.77,19.74-10.29,9-19.36,19.2-29.34,28.48-16.09,14.95-31.13,30.96-47.16,45.95-11.91,11.14-22.98,23.13-35,34.12-14,12.81-26.75,26.88-40.75,39.65-11.32,10.32-21.81,21.44-32.77,32.11-2.06,2-4.33,3.61-6.76,5.05Z"/>
  <path class="cls-4" d="M478.01.1h19c2.02,2.9-.22,4.67-1.87,6.42-5.14,5.45-10.99,10.21-16.23,15.52-21.66,21.92-44.13,43.01-66.09,64.61-14.24,14-28.25,28.28-42.9,41.86-11.61,10.76-22.59,22.12-33.8,33.25-.86.69-1.57,1.54-2.38,2.3-1.11,1.1-1.96,2.47-3.41,3.2-1.07.4-2.12.6-3.01,1.56-22.51,24.31-47.25,46.39-70.63,69.83-8.2,8.23-16.61,16.31-25.01,24.37-16.79,16.15-33.21,32.69-50.06,48.76-12.41,11.84-24.09,24.41-36.77,35.92-13.82,12.55-26.27,26.46-40.04,39.01-12.69,11.56-24.14,24.36-36.82,35.88-13.44,12.22-25.66,25.66-38.98,37.95-7.47,6.89-14.63,14.06-21.95,21.08-1.9,1.82-3.81,3.97-6.94,2.39v-18c1.53-2.79,3.54-5.18,5.77-7.46,21.31-21.79,43.58-42.62,65.34-63.94,12.36-12.11,24.34-24.66,37.14-36.3,13.69-12.45,26.07-26.23,39.72-38.67,12.94-11.79,24.64-24.83,37.57-36.58,13.33-12.11,25.35-25.53,38.65-37.62,12.96-11.77,24.64-24.83,37.57-36.58,12.96-11.77,24.64-24.83,37.58-36.57,12.84-11.65,24.39-24.6,37.2-36.24,13.57-12.34,25.84-25.98,39.37-38.3,12.33-11.23,23.45-23.67,35.75-34.87,13.93-12.68,26.66-26.56,40.42-39.38,6.82-6.36,13.58-12.77,20.13-19.4,1.69-1.71,4.04-2.32,5.69-3.99Z"/>
  <path class="cls-28" d="M1023.9,250.05v28.99c-18.3,18.61-36.94,36.87-55.96,54.75-.73.68-1.48,1.34-2.18,2.06-21.09,21.74-43.28,42.37-64.89,63.58-14.24,13.98-28.2,28.28-42.86,41.82-12.36,11.41-23.67,23.87-36.06,35.21-13.88,12.7-26.55,26.64-40.4,39.33-12.53,11.48-24.02,23.99-36.43,35.55-7.02,6.54-14.07,13.05-20.77,19.93-3.29.45-6.42,1.76-9.78,1.86-6.47.04-12.95.67-19.39-.41-3.54-2.21-2.28-4.79-.28-7.09,3.28-3.77,6.73-7.45,10.59-10.59,6.1-4.96,11.45-10.66,16.97-16.2,19.04-19.12,38.59-37.71,57.92-56.52,12.41-12.08,24.32-24.68,37.13-36.32,13.69-12.45,26.07-26.23,39.71-38.68,12.68-11.58,24.21-24.31,36.86-35.89,13.53-12.38,25.84-25.99,39.39-38.3,12.59-11.44,23.89-24.17,36.45-35.58,13.94-12.67,26.9-26.31,40.35-39.46,2.62-2.56,5.68-4.62,8.32-7.16,1.45-1.39,3.22-2.54,5.31-.86Z"/>
  <path class="cls-18" d="M1023.9,431.02v26.99c-3.18,5.38-7.54,9.65-12.48,13.38-.93.7-1.77,1.52-2.58,2.36-19.42,20.12-39.9,39.15-59.92,58.65-16.21,15.79-32.02,31.99-48.52,47.45-12.27,11.5-23.64,23.9-36.05,35.21-13.66,12.45-26.07,26.18-39.7,38.62-12.68,11.57-24.17,24.31-36.83,35.85-13.79,12.56-26.27,26.45-40.03,39-11.91,10.87-22.89,22.67-34.69,33.64-.36.34-.86.49-1.34.67-8.51.56-17.02.82-25.5-.14-3.31-1.88-2.53-4.36-.72-6.67,2.26-2.88,4.86-5.54,7.7-7.82,7.68-6.19,14.26-13.5,21.21-20.42,17.83-17.72,35.97-35.12,54.01-52.61,11.95-11.58,23.39-23.7,35.68-34.91,14.16-12.91,27.07-27.09,41.14-40.05,12.63-11.63,24.18-24.33,36.85-35.87,13.43-12.23,25.54-25.8,38.98-37.97,12.61-11.41,23.93-24.11,36.45-35.55,14.02-12.81,26.95-26.73,40.79-39.69,6.44-6.03,12.72-12.21,19.12-18.28,1.75-1.66,3.53-3.88,6.42-1.86Z"/>
  <path class="cls-11" d="M678.97.1c-.91,2.19-2.4,3.95-4.08,5.6-21.34,20.98-42.34,42.31-64.1,62.83-12.47,11.75-24.06,24.38-36.75,35.85-13.58,12.28-25.84,25.88-39.3,38.25-6.61,6.08-12.97,12.39-19.41,18.63-1.42,1.37-3.07,2.63-3.33,4.82-2.01,3.04-5.2,1.99-7.98,2.23-1.93.16-3.88.02-5.82-.09-5.71-.77-11.4-2.08-17.17-.46-6.22-1-12.56.29-18.76-.95-3.29-1.9-2.48-4.37-.68-6.68,1.94-2.49,4.21-4.74,6.76-6.62,1.49-1.09,2.87-2.27,4.14-3.59,22.15-22.8,45.39-44.48,68.06-66.75,13.17-12.93,26.01-26.24,39.62-38.7,12.53-11.47,24.26-23.73,36.35-35.62,3.47-3.41,7.26-6.33,11.45-8.76h50.99Z"/>
  <path class="cls-64" d="M.1,814.94c7.99-6.79,15.27-14.34,22.82-21.57,22.97-21.97,45.09-44.83,68.17-66.67,13.06-12.36,25.24-25.61,38.57-37.65,13.23-11.96,25.06-25.33,38.26-37.25,13.11-11.84,24.82-25.1,37.9-36.91,13.11-11.84,24.83-25.09,37.9-36.91,13.6-12.29,25.76-26.04,39.32-38.31,12.86-11.63,24.33-24.65,37.22-36.18,8.81-7.88,16.56-16.85,25.77-24.28.36-1.66,1.56-2.7,3.05-2.97,6.7-1.22,13.37-2.67,20.19-3.19.67-.05,1.3.25,1.9.52,2.65,1.77,1.97,3.93.55,6.02-1.13,1.65-2.69,2.95-4.08,4.39-22.02,22.73-45.19,44.28-67.76,66.45-12.35,12.13-24.33,24.67-37.14,36.29-13.34,12.1-25.34,25.53-38.62,37.64-13.31,12.13-25.38,25.5-38.66,37.61-13.18,12.02-25.07,25.34-38.25,37.3-13.09,11.88-24.91,25.02-37.93,36.92-13.05,11.92-24.85,25.09-37.93,36.92-13.35,12.08-25.4,25.47-38.61,37.65-8.33,7.68-16.24,15.76-24.5,23.5-2.19,2.05-4.41,4.92-8.14,2.67v-22Z"/>
  <path class="cls-25" d="M1023.9,841.94c-1.84.82-3.45,1.96-4.9,3.38-13.92,13.63-27.88,27.21-41.8,40.83-17.37,17-34.38,34.4-52.18,50.94-13.18,12.26-25.28,25.6-38.6,37.66-13.35,12.09-25.58,25.28-38.58,37.7-3.82,3.65-8.69,6.27-10.9,11.45h-41.99c1.06-2.83,3.73-4.2,5.71-6.16,22.83-22.58,45.42-45.43,68.72-67.52,13.05-12.37,25.25-25.59,38.58-37.63,11.5-10.39,21.91-21.86,33.25-32.37,14.9-13.8,28.76-28.66,43.63-42.46,11.84-10.99,22.97-22.67,34.6-33.84,1.31-1.26,2.48-2.75,4.48-2.97v40.99Z"/>
  <path class="cls-33" d="M542.99,813.11c.11,2.25-1.3,3.67-2.75,5.09-20.54,20.2-40.79,40.69-61.73,60.47-9.69,9.15-18.91,18.74-28.62,27.86-16.26,15.28-31.69,31.43-47.94,46.69-12.75,11.98-24.57,24.9-37.53,36.61-10.39,9.39-20,19.54-30.05,29.25-1.42,1.37-3.08,2.63-3.34,4.82h-38.99c-2.04-2.71-.3-4.93,1.34-6.64,9.89-10.36,19.84-20.66,30.49-30.24.98-.88,2.1-1.63,3.03-2.58,16.06-16.43,32.84-32.13,49.16-48.29,19.28-19.1,38.89-37.86,58.28-56.83,12.49-12.22,24.52-24.94,37.5-36.63,10.76-9.69,20.35-20.59,31.46-29.88,1.05-.88,1.99-1.75,3.41-1.89,10.25-.52,20.49-.28,30.73-.16,2.1.02,4.41-.08,5.55,2.36Z"/>
  <path class="cls-20" d="M1023.9,367.03c-1.6.19-2.68,1.22-3.77,2.27-8.63,8.31-17.34,16.54-25.89,24.92-21.05,20.63-41.72,41.65-63.14,61.88-13.32,12.58-25.76,26.04-39.3,38.33-12.96,11.77-24.58,24.89-37.56,36.59-13.25,11.95-25.07,25.35-38.28,37.27-13,11.73-24.6,24.87-37.56,36.58-13.62,12.29-25.77,26.05-39.35,38.33-12.99,11.75-24.6,24.87-37.56,36.58-13.36,12.07-25.3,25.58-38.64,37.62-12.88,11.62-24.71,24.26-37.06,36.38-2.31,2.27-5.98,3.29-6.8,7.01-.88,2.04-2.74,2.25-4.58,2.31-4.64.15-9.28.47-13.89-.35-3.02-3.05-3.09-4.57.39-8.2,7.14-7.46,14.22-15.03,21.93-21.87,11.48-10.18,21.7-21.63,32.94-32.02,14.68-13.57,28.28-28.25,42.94-41.79,11.75-10.86,22.56-22.65,34.32-33.47,14.59-13.43,28.02-28.04,42.6-41.44,11.91-10.94,22.77-22.92,34.66-33.83,14.24-13.07,27.32-27.32,41.56-40.36,11.31-10.36,21.62-21.71,32.86-32.1,15.04-13.91,29.05-28.88,44.06-42.8,11.85-10.99,22.73-22.95,34.63-33.85,14.13-12.94,27.32-26.83,41.17-40.04,4.32-4.13,8.81-8.1,13.15-12.23,1.71-1.62,3.59-3.13,6.2-1.71v20Z"/>
  <path class="cls-4" d="M478.01.1c-.26,2.19-1.93,3.44-3.34,4.82-17.92,17.61-35.53,35.56-53.91,52.69-12.43,11.58-23.91,24.12-36.44,35.55-13.53,12.35-25.83,25.94-39.34,38.26-12.81,11.68-24.34,24.63-37.18,36.22-13.11,11.84-24.83,25.09-37.92,36.89-12.75,11.5-24.12,24.38-36.83,35.87-13.6,12.29-25.78,26.02-39.34,38.29-11.62,10.51-22.1,22.15-33.61,32.73-14.84,13.63-28.49,28.48-43.28,42.13-12.49,11.53-23.87,24.16-36.45,35.54-13.59,12.3-25.8,26-39.34,38.29-12.22,11.09-23.47,23.12-35.32,34.55-1.7,1.64-3.42,3.17-5.61,4.08v-18c6.17-9.46,14.76-16.72,22.91-24.23,9.81-9.04,18.9-18.77,28.62-27.88,16.28-15.27,31.69-31.43,47.95-46.7,12.15-11.41,23.45-23.67,35.75-34.88,13.92-12.69,26.57-26.67,40.46-39.35,12.44-11.36,23.72-23.86,36.12-35.21,14.14-12.94,27.07-27.11,41.17-40.05,11.55-10.59,22.1-22.17,33.61-32.77,14.46-13.32,27.82-27.77,42.24-41.1,11.39-10.52,21.88-21.93,33.25-32.43,14.81-13.68,28.52-28.48,43.3-42.16,12.24-11.32,23.59-23.51,35.73-34.9,6.04-5.67,11.78-11.72,18.8-16.27h18Z"/>
  <path class="cls-2" d="M1023.9,184.06c-7.99,6.79-15.28,14.34-22.83,21.58-23.33,22.33-45.82,45.55-69.26,67.76-12.57,11.92-24.32,24.67-37.16,36.26-13.36,12.07-25.31,25.56-38.64,37.61-12.99,11.74-24.59,24.87-37.56,36.58-13.62,12.29-25.77,26.05-39.34,38.33-13.11,11.86-24.83,25.11-37.92,36.93-13.12,11.84-24.82,25.12-37.92,36.92-13.88,12.5-26.27,26.48-40.07,39.02-12.95,11.77-25.11,24.3-37.22,36.89-3.96,3.22-13.4,3.33-17.71.19-2.73-.17-2.76-1.2-.99-2.94,4.98-4.92,9.64-10.2,14.95-14.71,4.33-3.68,8.33-7.65,12.36-11.61,21.02-20.65,41.7-41.66,63.13-61.87,12.85-12.11,24.8-25.13,37.88-36.95,13.24-11.96,25.06-25.34,38.27-37.27,13.36-12.07,25.3-25.58,38.62-37.63,13.23-11.96,25.07-25.34,38.27-37.27,13.12-11.85,24.83-25.11,37.91-36.92,13.12-11.84,24.83-25.1,37.92-36.92,13.49-12.18,25.54-25.81,38.98-37.98,13.1-11.86,24.86-25.07,37.94-36.89,6.91-6.25,13.17-13.18,20.37-19.1v20Z"/>
  <path class="cls-38" d="M780.95,760.79c1.12-2.49,2.99-4.37,4.9-6.25,21.95-21.6,43.58-43.55,65.96-64.7,12.83-12.13,24.79-25.14,37.88-36.96,13.12-11.84,24.83-25.1,37.92-36.92,13.24-11.96,25.06-25.34,38.27-37.27,13.37-12.07,25.28-25.59,38.67-37.57,6.41-5.74,11.76-12.73,19.36-17.13v35.99c-1.72,3.56-5.04,5.63-7.68,8.35-21.9,22.56-44.94,43.96-67.35,66-13.39,13.17-26.41,26.76-40.31,39.4-12.57,11.43-23.91,24.09-36.44,35.5-13.66,12.45-26.13,26.09-39.69,38.6-5.56,5.13-10.72,10.77-17.05,15.08-9.79.65-19.57.34-29.35.21-1.97-.03-4.07-.1-5.08-2.34Z"/>
  <path class="cls-70" d="M460.01.1c-2.21,5.3-6.96,8.39-10.91,12.08-2.41,2.25-5,4.37-7.37,6.7-22.18,21.84-44.04,44.02-66.65,65.4-13.07,12.36-25.26,25.6-38.58,37.66-13.22,11.97-25.07,25.32-38.27,37.26-13.11,11.85-24.83,25.1-37.91,36.91-13.24,11.95-25.05,25.34-38.27,37.26-13.25,11.95-25.06,25.34-38.26,37.27-13.48,12.19-25.54,25.8-38.98,37.96-12.62,11.4-23.9,24.14-36.48,35.52-13.59,12.3-25.8,26.01-39.35,38.3-13.09,11.87-24.86,25.05-37.9,36.93-9.36,8.53-18.18,17.57-27.23,26.4-1.09,1.06-2.17,2.08-3.77,2.27v-19c1.25-1.09,2.81-1.71,3.99-2.95,10.07-10.65,21.35-20.05,31.59-30.54,18.15-18.58,37.07-36.39,55.71-54.47,12.78-12.41,25.21-25.17,38.13-37.43,25.85-24.52,51.08-49.67,76.69-74.43,10.53-10.18,20.54-20.86,31.13-30.97,28.05-26.79,55.61-54.08,83.38-81.17,24.19-23.59,48.42-47.14,72.7-70.65,14.83-14.36,29.49-28.9,44.17-43.41,1.07-1.06,2.37-1.84,3.42-2.9h19Z"/>
  <path class="cls-33" d="M1023.9,301.04v29.99c-7.21,10.55-16.88,18.83-26.12,27.38-10.28,9.51-19.74,19.83-30.02,29.31-15.56,14.34-29.99,29.84-45.45,44.25-12.07,11.25-23.21,23.43-35.38,34.54-13.91,12.7-26.59,26.65-40.48,39.34-12.8,11.7-24.41,24.59-37.19,36.26-10.2,9.31-19.69,19.33-29.8,28.71-.5.47-1.18.59-1.83.79-9.19,1.25-18.38.69-27.57.37-.53-.1-1.03-.31-1.48-.62-2.75-2.17-1.57-4.43.07-6.47,1.87-2.34,4.01-4.48,6.41-6.28,1.74-1.31,3.37-2.71,4.88-4.26,22.18-22.79,45.38-44.54,68.1-66.77,12.96-12.68,25.49-25.84,38.9-38.03,12.94-11.78,24.67-24.78,37.54-36.57,13.64-12.49,26.09-26.19,39.72-38.64,12.67-11.58,24.12-24.39,36.82-35.88,12.36-11.18,23.74-23.32,35.73-34.86,1.91-1.84,3.7-4.68,7.14-2.56Z"/>
  <path class="cls-22" d="M789.95.1c-1.29,3.01-3.42,5.26-6.1,7.09-1.09.74-2.1,1.64-3.04,2.57-21.01,20.65-41.8,41.53-63.07,61.91-15.14,14.51-29.66,29.67-45.03,43.92-12.7,11.78-24.34,24.64-37.15,36.26-13.7,12.43-26.04,26.24-39.7,38.64-12.84,11.65-24.34,24.64-37.18,36.22-13.37,12.06-25.3,25.56-38.63,37.6-13.23,11.96-25.06,25.33-38.25,37.27-13.47,12.19-25.54,25.8-38.98,37.95-12.86,11.62-24.63,24.32-37.1,36.32-1.53,1.48-3.39,2.79-3.7,5.17.42,2.44-1.42,3.27-3.08,3.85-6.9,2.41-13.78,4.91-20.7,7.25-2.09.7-4.42,1.21-6.02-.78-1.75-2.17-.13-4.27,1.17-5.84,4.11-4.94,6.8-11.08,12.32-14.84,3.79-.87,6.37-3.54,8.84-6.23,19.7-21.51,41.78-40.6,62.21-61.38,5.8-5.9,12.07-11.44,17.94-17.33,19.06-19.09,38.59-37.7,57.91-56.51,12.4-12.08,24.32-24.67,37.13-36.3,13.33-12.1,25.34-25.53,38.64-37.62,12.83-11.66,24.39-24.6,37.2-36.24,13.57-12.33,25.82-26,39.34-38.33,12.94-11.79,24.64-24.83,37.56-36.59,13.19-12,25.44-24.94,38.17-37.4,2.79-2.73,6.06-4.64,9.31-6.64h20Z"/>
  <path class="cls-41" d="M221.06,500.18c-3.71,6.09-9.55,10.08-14.53,14.95-22.98,22.43-45.49,45.35-68.79,67.45-13.04,12.37-25.26,25.58-38.57,37.63-13.34,12.08-25.28,25.56-38.6,37.61-13.22,11.96-25,25.39-38.31,37.18-7.44,6.59-13.49,14.75-22.16,19.96v-34.99c3.66-6.08,8.78-10.79,14.23-15.19,2.08-1.68,3.93-3.6,5.79-5.51,21.5-22.07,44.09-43.03,66.03-64.64,12.21-12.03,24.1-24.42,36.76-35.97,14.04-12.8,26.82-26.88,40.82-39.69,12.18-11.14,23.35-23.27,35.35-34.55,6.67-6.27,13.44-12.42,19.92-18.89,2.02-2.02,4.28-3.95,7.44-1.9,1.71,2.34.07,4.51-.32,6.75-2.57,3.4-3.33,7.52-4.55,11.46-.1,3.71-2.23,6.81-3.13,10.28-.48,1.63-1.72,3.24-.17,4.93.88,1.09,2.48,1.54,2.8,3.13Z"/>
  <path class="cls-7" d="M631.98,1023.9c.5-2.9,2.77-4.6,4.8-6.16,6.88-5.33,12.57-11.87,18.74-17.91,18.79-18.37,37.18-37.16,56.36-55.09,13.13-12.28,25.24-25.57,38.55-37.62,13.33-12.07,25.28-25.55,38.59-37.57,12.85-11.61,24.48-24.43,37.14-36.2,5.23-4.86,10.54-9.63,15.59-14.69,1.66-1.66,3.17-3.41,4.18-5.54.89-2.03,2.74-2.28,4.58-2.31,9.93-.13,19.87-.58,29.78.28,3.26,2.85,3.45,4.29.32,7.66-4.42,4.76-8.89,9.52-13.85,13.7-4.09,3.45-7.9,7.15-11.62,10.94-20.41,20.8-41.66,40.76-62.5,61.12-12.5,12.21-24.54,24.93-37.48,36.67-13.58,12.32-25.8,26.03-39.35,38.32-12.6,11.43-24.25,23.78-36.38,35.65-3.48,3.4-7.26,6.34-11.46,8.77h-35.99Z"/>
  <path class="cls-63" d="M335.04,160.84c1.16-2.46,3.03-4.35,4.93-6.22,20.29-19.94,40.25-40.24,60.97-59.72,13.1-12.32,25.25-25.59,38.56-37.64,13.34-12.08,25.43-25.4,38.6-37.6,5.37-4.97,10.72-9.94,15.91-15.09,1.29-1.28,2.75-2.47,2.98-4.47h46.99c1.13,2.31-.32,3.84-1.74,5.23-11.19,10.92-21.52,22.71-33.52,32.79-.77.64-1.48,1.34-2.18,2.06-20.57,21.31-42.3,41.44-63.43,62.18-14.83,14.56-29.66,29.14-44.52,43.67-3.44,3.36-7.39,6.18-10.67,9.74-1.59,1.73-3.6,3.14-1.09,5.76,1.24,1.3.13,2.42-1.13,3.19-4.26,1.05-8.64,1.01-12.86.45-7.6-1-15.22-.56-22.82-.96-4.99-1.13-10.41-.4-14.99-3.37Z"/>
  <path class="cls-61" d="M340.03.1c-.26,2.19-1.93,3.44-3.34,4.82-17.93,17.62-35.55,35.58-53.94,52.71-12.44,11.59-23.91,24.14-36.46,35.57-13.92,12.68-26.55,26.69-40.44,39.35-12.69,11.57-24.12,24.41-36.84,35.89-13.48,12.18-25.56,25.8-39,37.97-13.23,11.97-25.06,25.35-38.26,37.29-13.36,12.08-25.31,25.57-38.64,37.62-12.99,11.74-24.67,24.79-37.59,36.55-4.98,4.53-9.26,9.99-15.44,13.16v-22c1.53-2.79,3.53-5.19,5.77-7.46,19.75-20.05,40.26-39.31,60.38-58.97,12.38-12.1,24.33-24.65,37.14-36.29,13.82-12.55,26.29-26.47,40.07-39,12.82-11.67,24.39-24.6,37.19-36.23,13.32-12.1,25.34-25.52,38.63-37.62,12.82-11.67,24.39-24.59,37.19-36.24,13.56-12.34,25.82-26,39.37-38.29,6.99-6.34,12.95-13.9,21.2-18.84h23Z"/>
  <path class="cls-50" d="M317.04.1c-3.63,6.56-9.59,11.02-14.86,16.03-2.51,2.39-5.24,4.6-7.72,7.05-22.42,22.08-44.52,44.49-67.38,66.12-12.7,12.02-24.56,24.9-37.52,36.61-13.36,12.07-25.31,25.57-38.64,37.62-13.12,11.85-24.83,25.1-37.91,36.93-13.47,12.2-25.55,25.79-38.99,37.96-12.86,11.64-24.37,24.62-37.2,36.22-11.01,9.95-21.2,20.7-31.82,31.01-1.46,1.42-3.06,2.56-4.9,3.38,0-7.67,0-15.33,0-23,.9-.73,1.86-1.4,2.69-2.21,17.25-16.89,34.31-33.96,51.76-50.64,16.01-15.3,31.39-31.25,47.54-46.38,12.77-11.96,24.53-24.94,37.53-36.6,13.27-11.92,24.99-25.39,38.24-37.27,13.41-12.02,25.32-25.56,38.64-37.62,13.35-12.08,25.3-25.57,38.64-37.61,11.88-10.73,22.77-22.42,34.28-33.5,1.31-1.26,2.42-2.73,3.63-4.1,8,0,16,0,24,0Z"/>
  <path class="cls-67" d="M1023.9,658.97c-3.18,1.87-5.84,4.34-8.45,6.92-22.45,22.18-44.68,44.59-67.54,66.33-9.99,9.5-19.67,19.3-29.58,28.87-2.06,1.99-4.35,3.58-6.79,5.01-.95.48-2.01.59-2.89.08-6.6-3.81-13.84-2.77-20.94-2.98-6.96-.2-13.95.76-20.86-.69-3.07-2.21-2.04-4.74-.08-6.79,7.37-7.68,14.7-15.41,22.68-22.47,1.11-.98,2.37-1.82,3.41-2.9,20.12-20.81,41.26-40.58,62.01-60.75,15.62-15.18,30.88-30.73,46.71-45.69,5.31-5.02,10.58-10.09,15.9-15.1,1.75-1.65,3.53-3.86,6.42-1.86v51.99Z"/>
  <path class="cls-12" d="M1023.9,301.04c-2.19.26-3.42,1.95-4.83,3.34-22.19,21.85-44.06,44.03-66.68,65.43-13.32,12.59-25.74,26.09-39.31,38.37-13.11,11.86-24.83,25.12-37.92,36.93-13.12,11.85-24.84,25.11-37.93,36.93-13.24,11.96-25.07,25.35-38.28,37.28-13.37,12.07-25.6,25.26-38.55,37.73-4.27,4.11-9.79,7-12.44,12.69-.49.97-1.35,1.5-2.36,1.55-6.22.3-12.44.42-18.65-.07-.85-.07-1.5-.6-1.99-1.3-.15-2.47,1.44-3.99,3.04-5.46,15.96-14.61,30.7-30.48,46.49-45.23,9.24-8.64,17.95-17.8,27.18-26.42,16.79-15.67,32.57-32.38,49.3-48.07,12.75-11.96,24.54-24.89,37.49-36.58,13.23-11.95,25.06-25.31,38.25-37.24,13.1-11.84,24.81-25.08,37.89-36.89,13.48-12.17,25.66-25.63,38.94-37.96,5.36-4.98,10.75-9.91,15.92-15.08,1.24-1.24,2.65-1.98,4.43-1.93v22Z"/>
  <path class="cls-68" d="M144.07,1020.74c5.67,1.06,11.33,2.11,17,3.17-52.32,0-104.65-.04-156.97.1-3.42,0-4.11-.67-4.1-4.1.14-52.32.1-104.65.1-156.97,1,5.65,2.01,11.29,2.99,16.94.14.79-.06,1.67.9,2.09,1.56,1.11,2.47,2.68,2.89,4.48,1.97,8.37,5.06,16.38,7.66,24.54,3.61,7.37,6.74,14.99,10.95,22.07,4.18,7.19,9.2,13.84,13.7,20.84,3.48,3.84,7.01,7.64,9.97,11.92,3.3,2.74,6.37,5.72,9.08,9.06,4.77,3.1,8.55,7.4,13.12,10.74,10.48,7.38,21.32,14.17,32.74,20.01,11.68,4.62,23.35,9.28,35.65,12.05,1.97.44,3.14,1.69,4.33,3.06Z"/>
  <path class="cls-68" d="M862.93,1023.9c5.34-1,10.67-2.01,16.01-2.99,18.98-3.48,36.68-10.23,53.52-19.72,16.14-9.09,30.64-20.15,43.21-33.64,16.02-17.18,28.45-36.72,36.83-58.76,5.51-14.49,9.43-29.34,10.52-44.87.02-.35.58-.66.89-.99,0,52.32-.04,104.65.1,156.97,0,3.42-.67,4.11-4.1,4.1-52.32-.14-104.65-.1-156.97-.1Z"/>
  <path class="cls-68" d="M1023.9,161.07c-1-5.48-1.98-10.97-3-16.45-1.64-8.72-3.66-17.34-7.16-25.54-1.97-1.03-3.18-2.59-4.03-4.71-2.72-6.85-5.82-13.54-9.14-20.12-2.51-3.09-3.94-6.82-5.99-10.18-2.67-3.07-4.67-6.6-6.81-10.03-3.02-2.98-5.07-6.74-7.89-9.88-.81-.8-1.64-1.58-2.34-2.48-5.13-5.91-10.84-11.23-16.61-16.48-6.29-5.35-13.1-10.01-19.79-14.84-4.26-2.75-8.85-4.94-13.02-7.85-4.42-1.68-8.41-4.28-12.79-6.03-5.51-2.15-11.14-4.01-16.5-6.54-8.12-1.88-16.23-3.77-24.32-5.73-1.29-.46-2.67-.41-3.98-.73-2.49-1.22-6.77,1.56-7.61-3.38C915.26.1,967.58.14,1019.9,0c3.42,0,4.11.67,4.1,4.1-.14,52.32-.1,104.65-.1,156.97Z"/>
  <path class="cls-68" d="M161.07.1c-5.36,1-10.72,2.01-16.08,2.99-26.59,4.88-50.49,15.84-72.24,31.78-8.81,6.46-17.07,13.54-24.44,21.57-16.17,17.62-28.87,37.43-37.23,59.96-5.25,14.14-9.01,28.57-10.1,43.65-.03.36-.57.68-.88,1.02,0-52.41.03-104.82-.08-157.23C.01.72.72.01,3.84.02c52.41.11,104.82.08,157.23.08Z"/>
  <path class="cls-33" d="M778.95,569.85c.34-2.17,2.03-3.39,3.43-4.77,18.87-18.56,37.43-37.46,56.76-55.53,12.54-11.72,24.1-24.42,36.81-35.91,13.48-12.18,25.56-25.79,39-37.96,12.97-11.76,24.59-24.87,37.55-36.58,13.61-12.29,25.79-26.02,39.35-38.31,9.63-8.74,18.57-18.14,27.93-27.13,1.2-1.16,2.32-2.42,4.13-2.62v16c-7.23,4.05-12.46,10.51-18.29,16.08-23.12,22.08-45.4,45.05-68.59,67.06-13.66,12.96-26.46,26.78-40.39,39.42-12.23,11.09-23.23,23.42-35.42,34.5-13.94,12.67-26.55,26.69-40.45,39.36-12.69,11.57-24.12,24.41-36.84,35.9-13.86,12.52-26.27,26.51-40.07,39.03-12.85,11.65-24.36,24.65-37.21,36.24-13.37,12.07-25.32,25.57-38.65,37.63-12.99,11.75-24.63,24.85-37.58,36.58-9.27,8.4-17.9,17.41-26.89,26.06-1.81,1.75-3.49,3.58-4.55,5.9-1.7,3.14-4.77,2.22-7.4,2.39-2.42.15-4.88.16-7.26-.46-3.61-2.09-2.6-4.82-.47-7.01,8.8-9.08,17.48-18.3,26.98-26.67,1.12-.99,2.34-1.87,3.38-2.95,18.23-18.96,37.7-36.65,56.3-55.24,17.06-17.06,34.41-33.83,51.84-50.5,10.56-10.11,20.32-21.1,31.82-30.22,1.56-1.24,2.11-2.92,2.55-4.71,5.25-6.19,12.72-9.17,19.39-13.32,1.06-.66,2.68-.5,2.85-2.25Z"/>
  <path class="cls-22" d="M769.95.1c-.96,2.18-2.26,4.02-4.37,5.29-1.12.67-2.06,1.67-3.01,2.61-22.77,22.42-45.22,45.16-68.4,67.15-13.65,12.95-26.44,26.76-40.36,39.39-12.71,11.54-24.11,24.38-36.82,35.87-13.6,12.29-25.77,26.02-39.34,38.29-11.75,10.62-22.31,22.4-33.96,33.08-14.73,13.5-28.24,28.26-42.91,41.78-12.5,11.51-23.87,24.15-36.45,35.53-13.71,12.41-26.03,26.23-39.7,38.63-10,9.07-19.21,18.9-28.97,28.18-2.63,2.5-5.2,5.15-8.93,6.04-1.75-3.1.64-5.14,2.16-7.07,17.68-22.4,34.83-45.23,52.81-67.39,1.51-1.86,2.88-3.71,5.63-3.41,6.01-3.34,10.97-8.1,15.81-12.79,22.82-22.13,45.11-44.81,68.11-66.75,13.86-13.21,26.98-27.17,41.1-40.07,11.69-10.68,22.31-22.42,33.96-33.09,14.37-13.16,27.54-27.55,41.86-40.72,12.88-11.84,24.58-24.87,37.52-36.59,13.71-12.42,26.09-26.17,39.71-38.64,7-6.41,13.63-13.17,20.5-19.71,1.71-1.63,3.18-3.41,4.09-5.6h20Z"/>
  <path class="cls-34" d="M1023.9,431.02c-1.6.19-2.68,1.22-3.77,2.27-8.63,8.31-17.34,16.53-25.89,24.92-21.75,21.33-43.12,43.07-65.26,63.98-12.72,12.01-24.56,24.9-37.52,36.61-13.36,12.07-25.3,25.57-38.63,37.61-13.24,11.96-25.06,25.35-38.26,37.28-13.36,12.07-25.31,25.57-38.63,37.62-12.87,11.63-24.37,24.62-37.2,36.23-13.48,12.19-25.76,25.56-38.96,38-3.86,3.64-8.02,6.99-11.71,10.83-1.26,1.31-2.78,2.44-3.09,4.42-.88,2.05-2.74,2.25-4.59,2.31-4.31.15-8.63.44-12.91-.36-2.88-1.36-2.55-3.55-1.38-5.85.91-1.81,2.49-3.11,3.88-4.54,21.02-21.6,43.09-42.14,64.59-63.26,11.99-11.77,23.65-23.91,36.06-35.25,13.66-12.48,26.07-26.22,39.73-38.65,12.83-11.67,24.39-24.6,37.16-36.27,13.78-12.59,26.37-26.39,40.11-38.97,11.93-10.92,22.74-22.95,34.67-33.82,14.16-12.91,27.09-27.07,41.16-40.04,12.38-11.41,23.94-23.62,36.07-35.25,5.88-5.64,12.19-10.82,17.82-16.74,1.71-1.8,3.69-3.56,6.56-2.06v19Z"/>
  <path class="cls-13" d="M712.96,760.79c.56-1,.93-2.2,1.71-2.97,21.8-21.53,43.53-43.12,65.57-64.4,3.93-3.79,8.08-7.42,11.99-11.26,20.91-20.53,41.46-41.44,62.79-61.52,12.61-11.88,24.33-24.66,37.17-36.26,13.73-12.41,26.02-26.28,39.7-38.67,12.98-11.76,24.59-24.88,37.56-36.58,13.25-11.95,25.12-25.28,38.32-37.23,5.23-4.74,9.63-10.57,16.12-13.88v21c-4.14,2.83-7.75,6.25-11.31,9.77-22.14,21.89-44.02,44.04-66.64,65.43-12.71,12.02-24.56,24.9-37.52,36.61-13.36,12.07-25.3,25.57-38.63,37.61-13.11,11.85-24.83,25.09-37.9,36.93-13.47,12.2-25.56,25.79-38.99,37.96-12.97,11.75-24.69,24.75-37.54,36.58-7.35,6.77-14.65,13.55-21.41,20.9-.53,1.12-1.41,1.87-2.62,2.03-5.25.67-10.51.67-15.76,0-1.21-.15-2.09-.91-2.62-2.03Z"/>
  <path class="cls-34" d="M1023.9,412.02c-1.51,1.01-3.2,1.83-4.5,3.07-9.16,8.71-18.29,17.44-27.32,26.28-19.74,19.32-39.08,39.05-59.22,57.95-12.63,11.85-24.32,24.64-37.15,36.23-13.47,12.18-25.53,25.79-38.97,37.94-12.98,11.74-24.59,24.84-37.52,36.57-13.58,12.31-25.79,26-39.33,38.29-12.84,11.64-24.34,24.62-37.17,36.21-13.48,12.18-25.53,25.79-38.98,37.93-11.5,10.39-22.03,21.73-33.21,32.41-1.82,1.74-3.48,3.58-4.55,5.89-4.04,3.49-13.95,3.49-18,0,.34-.75.5-1.68,1.04-2.22,10.08-10.17,19.83-20.71,30.43-30.3,11-9.95,20.9-20.99,31.79-31.01,14.7-13.53,28.28-28.21,42.93-41.76,12.6-11.65,24.09-24.41,36.8-35.89,13.85-12.51,26.25-26.49,40.04-39,12.84-11.64,24.35-24.62,37.18-36.21,13.48-12.18,25.53-25.79,38.98-37.94,12.49-11.29,23.67-23.89,36.11-35.17,14.07-12.76,26.75-26.93,40.76-39.69,11.46-10.43,22.05-21.71,33.2-32.43,1.94-1.87,3.82-3.74,6.65-4.13v17Z"/>
  <path class="cls-1" d="M428.02,1023.9h-30.99c-1.64-2.24-.11-3.68,1.32-5.12,24.06-24.2,48.77-47.73,73.15-71.61,7.6-7.44,15.27-14.83,22.86-22.28,17.69-17.37,35.5-34.64,53.29-51.9,11.7-11.35,23.08-23.04,34.96-34.21,9.32-8.77,18.96-17.21,27.25-27.02.31-.37.85-.5,1.33-.69,9.49-.6,18.97-.81,28.44.1,3.61,2.09,2.61,4.81.47,7.01-8.81,9.08-17.47,18.31-26.99,26.67-1,.88-2.06,1.68-3.01,2.62-15.19,14.94-30.35,29.9-45.6,44.78-20.96,20.47-42.01,40.86-62.94,61.36-12.36,12.11-24.33,24.65-37.14,36.28-10.49,9.52-20.27,19.73-30.36,29.65-1.82,1.79-3.96,3.02-6.06,4.35Z"/>
  <path class="cls-30" d="M495,1023.9h-30.99c-1.91-2.62-.17-4.56,1.54-6.03,15.3-13.13,28.24-28.71,43.54-41.83.76-.65,1.48-1.34,2.17-2.06,21.55-22.24,44.24-43.31,66.31-65.02,14-13.76,27.71-27.85,42.13-41.16,12.12-11.19,23.27-23.35,35.41-34.47,8.06-7.38,15.51-15.41,24.06-22.29,9.16-.56,18.32-.82,27.46.13,3.6,2.11,2.55,4.8.44,7.02-6.64,7-13.31,14.01-20.58,20.37-1.25,1.09-2.61,2.07-3.77,3.26-19.12,19.74-39.22,38.46-58.88,57.65-16.56,16.16-32.77,32.69-49.64,48.52-11.9,11.17-22.95,23.21-35.01,34.18-13.19,12-25.53,24.83-38.15,37.39-1.82,1.81-4.24,2.61-6.06,4.33Z"/>
  <path class="cls-17" d="M862.93.1c2.21,2.61,5.78-.55,8.04,1.88,1.63,2,.39,3.45-1.05,4.68-15.58,13.33-28.94,28.96-44.21,42.63-10.8,9.67-20.49,20.5-30.96,30.52-26.83,25.67-53.2,51.81-79.88,77.62-12.56,12.16-24.55,24.92-37.51,36.65-13.48,12.2-25.56,25.81-38.99,37.99-13.34,12.1-25.45,25.43-38.6,37.68-20.1,18.73-39.32,38.36-59.22,57.3-2.4,2.29-4.79,4.63-5.55,8.08-1.25,1.94-3.31,2.78-5.29,3.45-7.31,2.47-14.47,5.45-22.04,7.13-4.21-1.91-4.84-4.2-1.77-7.93,3.18-3.86,6.74-7.42,10.59-10.59,2.84-2.34,5.54-4.78,8.1-7.41,21.27-21.84,43.57-42.62,65.31-63.97,12.59-12.36,24.81-25.13,37.87-36.98,13.34-12.1,25.33-25.55,38.61-37.66,13.3-12.13,25.37-25.52,38.68-37.6,12.84-11.65,24.37-24.63,37.17-36.27,13.44-12.23,25.61-25.75,39.04-37.94,12.97-11.76,24.64-24.82,37.52-36.63,10.07-9.24,19.69-18.91,29.36-28.55,1.99-1.98,4.56-2.68,6.78-4.1h8Z"/>
  <path class="cls-12" d="M505,813.11c-9.29,9.52-18.2,19.43-28.5,27.93-.77.63-1.45,1.37-2.16,2.07-23.23,22.9-46.16,46.11-69.82,68.57-13.04,12.38-25.25,25.6-38.58,37.64-12.86,11.62-24.36,24.61-37.19,36.21-10.88,9.83-20.95,20.45-31.46,30.64-2.28,2.21-4.39,4.56-5.25,7.74h-30.99c-1.8-2.35-.33-4.17,1.18-5.68,5.99-5.99,11.56-12.43,18.3-17.66.92-.72,1.77-1.51,2.58-2.35,20.8-21.56,42.81-41.88,64.13-62.91,14.8-14.6,29.43-29.4,44.63-43.57,11.21-10.44,21.6-21.69,32.86-32.05,14.58-13.41,28.33-27.65,42.46-41.51,2.81-2.76,6.21-4.77,9.3-7.2,7.81-.63,15.61-.36,23.41-.22,1.98.04,4.07.09,5.09,2.34Z"/>
  <path class="cls-39" d="M.1,836.94c2.68-.68,4.75-2.35,6.67-4.2,7.91-7.61,15.75-15.28,23.67-22.87,23.41-22.46,46.03-45.75,69.55-68.09,13.27-12.61,25.73-26.05,39.29-38.33,12.72-11.52,24.11-24.38,36.81-35.86,13.84-12.51,26.24-26.48,40.03-38.99,12.96-11.76,24.57-24.86,37.53-36.55,13.24-11.94,25.05-25.32,38.25-37.24,13.23-11.95,25.04-25.34,38.25-37.25,13.25-11.94,25.34-25.01,38.15-37.36,1.53-1.48,3.39-2.78,3.71-5.16.04-.16.03-.36.13-.48,3.23-4.04,17.58-6.24,21.87-3.36-19.97,21.22-41.55,40.8-62.27,61.24-12.9,12.73-25.44,25.88-38.88,38.03-12.74,11.51-24.12,24.38-36.82,35.86-13.47,12.18-25.55,25.78-38.98,37.94-13.22,11.97-25.05,25.33-38.24,37.27-13.47,12.19-25.53,25.79-38.98,37.95-12.61,11.4-23.89,24.13-36.47,35.51-13.59,12.3-25.79,26.01-39.34,38.29-13.21,11.98-25.12,25.25-38.24,37.27-7.49,6.86-14.7,13.98-21.93,21.09-1.08,1.06-2.17,2.08-3.77,2.27v-17Z"/>
  <path class="cls-64" d="M854.93.1c-9.9,10.56-19.89,21.03-30.83,30.56-1.38,1.2-2.69,2.49-3.99,3.77-23.01,22.67-45.74,45.64-69.16,67.89-10.99,10.44-21.42,21.43-32.54,31.72-14.91,13.81-28.77,28.7-43.66,42.49-12.97,12.01-24.81,25.13-37.88,36.97-13.48,12.19-25.55,25.81-39,37.97-12.87,11.63-24.36,24.64-37.2,36.24-13.37,12.06-25.49,25.37-38.63,37.64-4.86,4.54-9.94,8.85-14.46,13.74-1.21,1.31-3.85,3.03-.46,5,.27,2.09-1.18,3.1-2.72,3.63-7.63,2.64-15.04,5.89-22.88,7.91-.98.25-1.96.24-2.93,0-3.7-1.71-3.47-4.55-1.11-6.79,13.15-12.51,25.25-26.1,38.91-38.08,2.01-1.76,3.93-3.6,5.79-5.51,21.85-22.44,44.73-43.81,67.09-65.73,12.12-11.88,23.86-24.19,36.4-35.63,13.67-12.47,26.09-26.22,39.75-38.65,12.45-11.34,23.73-23.86,36.12-35.2,14.02-12.83,26.78-26.94,40.78-39.74,12.68-11.58,24.2-24.32,36.87-35.87,13.43-12.24,25.61-25.74,39-37.98,6.1-5.58,11.48-12.07,18.74-16.34h18Z"/>
  <path class="cls-63" d="M.1,484.01c1.84-.82,3.45-1.96,4.9-3.38,13.91-13.62,27.86-27.19,41.77-40.8,16.77-16.41,33.18-33.21,50.38-49.14,13.08-12.11,25.03-25.36,38.22-37.29,13.35-12.07,25.3-25.55,38.62-37.6,12.98-11.74,24.58-24.86,37.54-36.56,13.36-12.06,25.29-25.56,38.62-37.6,13.24-11.95,25.05-25.34,38.25-37.26,12.61-11.4,24.2-23.79,36.4-35.59,1.46-1.41,2.86-2.83,5.11-2.72,1.86,1.34,1.56,3.28.97,4.93-1.35,3.82-1.62,8.14-4.87,11.14-3.34,1.62-3.91,5.34-5.97,7.92.08,2.25-1.08,4.08-2,6-3.54,1.98-6.03,5.11-8.91,7.85-16.68,15.81-32.62,32.38-49.34,48.13-12.62,11.88-24.31,24.69-37.16,36.27-13.38,12.06-25.31,25.57-38.64,37.62-13.37,12.07-25.29,25.59-38.62,37.64-13.24,11.96-25.07,25.34-38.28,37.27-13,11.74-24.6,24.87-37.57,36.58-13.37,12.07-25.33,25.55-38.65,37.61-8.78,7.95-16.88,16.54-25.49,24.63-1.41,1.33-2.51,3.88-5.28,2.35v-18Z"/>
  <path class="cls-40" d="M816.94,760.79c1.93-4.67,6.02-7.5,9.57-10.62,3.25-2.85,6.42-5.77,9.5-8.8,21.58-21.23,42.83-42.81,64.84-63.58,13.07-12.34,25.24-25.58,38.55-37.63,13.34-12.07,25.28-25.55,38.6-37.58,12.86-11.61,24.61-24.3,37.09-36.27,2.63-2.53,5.3-5.01,8.81-6.32v29.99c-2.53,5.03-6.67,8.74-10.85,12.23-4.6,3.86-8.84,8.07-13.04,12.32-19.99,20.21-40.62,39.78-60.97,59.62-12.98,12.64-25.48,25.79-38.86,37.98-13.16,12-25.17,25.15-38.23,37.21-5.06,4.68-9.8,9.79-15.65,13.61-7.94.56-15.87.31-23.8.19-2.1-.03-4.41.09-5.56-2.36Z"/>
  <path class="cls-21" d="M836.94.1c-2.27,5.46-7.04,8.85-11.2,12.48-11.8,10.31-22.1,22.14-33.6,32.72-14.58,13.41-28.03,27.98-42.56,41.4-11.38,10.51-21.87,21.89-33.22,32.39-14.91,13.79-28.75,28.67-43.63,42.46-12.46,11.54-23.86,24.15-36.44,35.53-13.71,12.41-26.02,26.24-39.69,38.63-11.12,10.07-21.19,21.16-32.17,31.33-15.15,14.02-29.16,29.22-44.35,43.14-14.12,12.94-26.82,27.29-41.2,39.92-1.49,1.31-2.25,2.48-.52,4.09,0,2.2-1.46,3.25-3.25,3.94-5.75,2.22-11.65,4.02-17.5,5.95-1.66.55-3.29.56-4.51-1.03-1.55-2.1.44-3.03,1.5-4.07,20.96-20.69,41.73-41.58,63.08-61.86,7.84-7.45,15.53-15.03,23.27-22.57,17.75-17.3,35.07-35.06,53.22-51.94,12.56-11.69,24.09-24.4,36.79-35.88,13.6-12.29,25.77-26.02,39.34-38.28,11.87-10.73,22.54-22.65,34.32-33.42,14.62-13.37,27.98-28.04,42.55-41.42,12.64-11.61,24.1-24.39,36.81-35.87,11.25-10.17,21.65-21.16,32.53-31.68,1.81-1.75,3.49-3.58,4.44-5.96h16Z"/>
  <path class="cls-56" d="M573.99.1h33.99c1.91,2.62.17,4.57-1.54,6.03-15.33,13.09-28.2,28.73-43.52,41.83-.76.65-1.48,1.35-2.17,2.06-22.36,22.83-45.62,44.75-68.46,67.09-13.32,13.03-26.4,26.31-39.97,39.08-3.6,3.39-7.08,6.98-11.25,9.76-5.27.65-10.56.41-15.83.23-4.1-.51-8.06-1.8-12.3-1.73-3.27.05-4.27-2-2.98-5.05.73-1.73,2.14-2.95,3.41-4.26,20.25-20.67,41.43-40.38,62.02-60.7,8.86-8.75,17.72-17.53,26.76-26.11,16.29-15.44,32.08-31.39,48.2-46.99,5.96-5.77,12.13-11.35,17.95-17.27,1.69-1.71,4.04-2.31,5.69-3.97Z"/>
  <path class="cls-37" d="M226.05,464.01c-2.46-.15-3.93,1.45-5.49,2.98-16.26,15.95-32.22,32.24-48.92,47.72-13.55,12.56-25.96,26.28-39.63,38.66-12.84,11.63-24.34,24.6-37.16,36.19-13.47,12.17-25.52,25.78-38.96,37.92-12.73,11.51-24.11,24.37-36.84,35.8-6.25,5.61-11.5,12.42-18.94,16.68v-23c1.6-.19,2.68-1.21,3.77-2.26,8.62-8.3,17.32-16.52,25.86-24.89,21.73-21.31,43.07-43.02,65.19-63.92,12.82-12.11,24.77-25.11,37.84-36.91,13.23-11.94,25.03-25.32,38.23-37.23,12.99-11.72,24.63-24.77,37.52-36.53,7.62-6.96,14.81-14.33,22.34-21.35,1.5-1.4,3.1-4.58,6.13-1.86,1.01,1.4.63,2.87.11,4.28-2.88,7.79-4.68,15.93-7.51,23.73-.61,1.69-.69,4.15-3.53,3.99Z"/>
  <path class="cls-34" d="M609.98,813.11c-.47,2.8-2.33,4.71-4.24,6.59-16.98,16.64-33.62,33.64-51.05,49.8-12.33,11.43-23.65,23.86-36.05,35.17-14.02,12.79-26.76,26.87-40.74,39.65-12.66,11.57-24.02,24.45-36.8,35.83-14.8,13.17-27.75,28.2-42.64,41.24-.69.6-.97,1.67-1.44,2.52h-23c1.01-2.55,2.9-4.42,4.8-6.31,13.66-13.64,27.46-27.13,41.38-40.5,20.77-19.94,40.79-40.66,61.76-60.38,13.1-12.32,25.26-25.6,38.57-37.65,13.35-12.08,25.33-25.53,38.63-37.59,8.4-7.61,16.22-15.76,24.37-23.61,1.42-1.37,3.1-2.6,3.45-4.76.43-.95,1.15-1.75,2.15-1.89,6.23-.9,12.47-.9,18.7,0,.99.14,1.71.94,2.15,1.89Z"/>
  <path class="cls-55" d="M573.99.1c-.26,2.19-1.92,3.43-3.33,4.82-16.96,16.65-33.61,33.64-51.03,49.8-11.59,10.75-22.27,22.4-33.91,33.06-14.47,13.26-27.76,27.73-42.17,41.02-10.28,9.48-19.9,19.58-29.96,29.25-1.16,1.11-3.07,2.29-2.39,4.02.73,1.86,2.93.82,4.48.99,2.78.3,5.67-.58,8.34.83-.89,2.03-2.74,2.21-4.59,2.34-9.64.67-19.19-1.26-28.81-1.12-1.56.02-2.91-.64-3.59-2.22-.95-.27-1.88-.72-2.84-.78-3.48-.23-3.03-2.17-1.47-3.92,3.1-3.47,6.24-6.98,9.83-9.9,3.37-2.74,6.45-5.74,9.52-8.77,21.92-21.57,43.52-43.5,65.88-64.61,12.82-12.11,24.75-25.11,37.83-36.9,11.87-10.71,22.77-22.37,34.24-33.45,1.43-1.38,2.66-2.96,3.98-4.45,10,0,20,0,29.99,0Z"/>
  <path class="cls-13" d="M677.97,813.11c-3.15,6.06-8.51,10.22-13.43,14.54-11.52,10.12-21.63,21.66-32.87,32.02-15.05,13.87-28.97,28.91-43.97,42.8-12.34,11.43-23.63,23.9-36.07,35.18-13.7,12.41-26.03,26.21-39.68,38.62-12.94,11.77-24.83,24.56-37.45,36.62-2.88,2.75-5.99,5.25-8.87,8-.78.75-1.09,1.99-1.61,3.01h-19c-1.8-2.35-.34-4.18,1.18-5.68,9.82-9.7,19.04-20.01,29.64-28.92,2.3-1.93,4.35-4.12,6.44-6.27,21.2-21.87,43.56-42.55,65.24-63.93,12.07-11.91,23.89-24.12,36.41-35.56,14.02-12.81,26.75-26.92,40.76-39.68,11.31-10.3,21.72-21.49,32.88-31.93.5-.46,1.12-.71,1.77-.92,4.56-.54,9.12-.42,13.67-.24,1.95.08,3.99.13,4.97,2.34Z"/>
  <path class="cls-12" d="M475.01,813.11c-.3,1.8-1.55,2.84-2.94,3.83-1.21.86-2.36,1.84-3.42,2.89-22.88,22.52-45.44,45.38-68.73,67.47-13.52,12.83-26.19,26.52-39.98,39.02-12.72,11.52-24.11,24.37-36.81,35.85-13.59,12.29-25.86,25.9-39.32,38.27-6.62,6.08-12.98,12.39-19.42,18.64-1.42,1.37-3.07,2.63-3.34,4.82h-19c.23-2,1.68-3.2,2.98-4.47,18.76-18.44,37.21-37.2,56.41-55.16,10.95-10.25,21.18-21.2,32.17-31.36,14.92-13.79,28.77-28.68,43.66-42.48,12.47-11.56,23.88-24.17,36.46-35.55,12.98-11.74,24.96-24.46,37.48-36.66,1.53-1.49,3.4-2.77,3.81-5.11.53-1.12,1.41-1.87,2.62-2.03,4.92-.66,9.84-.66,14.76,0,1.21.16,2.09.91,2.62,2.03Z"/>
  <path class="cls-43" d="M667.97,1023.9c1.09-2.5,2.7-4.53,5.02-6.05,1.24-.81,2.35-1.85,3.41-2.9,22.87-22.52,45.43-45.37,68.71-67.45,13.52-12.82,26.18-26.52,39.97-39.01,12.71-11.52,24.1-24.36,36.8-35.84,13.59-12.28,25.88-25.87,39.31-38.27,5.99-5.53,11.83-11.18,17.66-16.87,1.3-1.27,2.78-2.43,3.09-4.41,4.01-3.46,12.98-3.46,17,0,.11,2.25-1.3,3.67-2.75,5.09-22.19,21.84-44.09,43.99-66.68,65.41-10.4,9.85-20.26,20.23-30.75,29.97-15.62,14.51-30.21,30.09-45.79,44.6-12.81,11.93-24.6,24.86-37.54,36.6-8.64,7.84-16.76,16.18-25.1,24.31-1.42,1.38-3.08,2.63-3.34,4.82h-19Z"/>
  <path class="cls-30" d="M495,1023.9c.26-2.19,1.93-3.43,3.34-4.82,22.88-22.56,45.45-45.45,68.78-67.53,12.94-12.25,25.02-25.38,38.22-37.32,13.36-12.07,25.31-25.57,38.63-37.61,12.99-11.74,24.65-24.8,37.56-36.57,7.89-7.18,15.37-14.74,22.98-22.18,1.41-1.38,3.1-2.6,3.45-4.76,4.04-3.49,13.95-3.49,18,0-.35,2.16-2.04,3.38-3.45,4.76-18.86,18.56-37.41,37.45-56.74,55.51-12.53,11.72-24.09,24.41-36.8,35.89-13.48,12.18-25.55,25.78-38.98,37.95-12.97,11.75-24.58,24.86-37.55,36.56-12.13,10.94-23.25,22.87-35,34.17-1.81,1.75-3.49,3.58-4.45,5.95h-18Z"/>
  <path class="cls-13" d="M657.97,813.11c-.27,1.79-1.55,2.9-2.73,4.06-20.88,20.55-41.5,41.38-62.78,61.52-9.31,8.81-18.19,18.05-27.56,26.79-16.32,15.21-31.64,31.47-47.92,46.7-12.77,11.95-24.56,24.9-37.53,36.6-10.64,9.61-20.47,20.01-30.75,29.96-1.53,1.48-3.39,2.79-3.7,5.17h-17c.96-2.38,2.65-4.19,4.44-5.96,20.54-20.18,40.73-40.72,61.7-60.44,12.98-12.21,25.01-25.37,38.22-37.3,13.36-12.07,25.3-25.56,38.62-37.6,12.98-11.74,24.6-24.84,37.55-36.55,10.01-9.05,19.3-18.81,28.98-28.18,1.42-1.37,3.1-2.6,3.45-4.76,4.01-3.46,12.98-3.46,17,0Z"/>
  <path class="cls-16" d="M442.01,164.18c1.12-2.9,3.13-5.05,5.59-6.87,1.2-.89,2.4-1.79,3.46-2.83,18.64-18.27,37.25-36.56,55.88-54.85,17.68-17.35,35.03-35.05,53.15-51.92,12.79-11.91,24.86-24.5,37.37-36.66,3.63-3.53,8.78-5.62,10.52-10.96h20c-1.09,2.5-2.7,4.54-5.02,6.05-1.24.81-2.35,1.85-3.41,2.9-22.88,22.52-45.44,45.38-68.73,67.47-13.16,12.48-25.48,25.82-38.92,37.97-13.22,11.96-25.35,24.98-38.13,37.36-4.37,4.23-10.1,7.13-12.76,13.03-3.84,4.24-8.86,1.94-13.37,2.3-2.33.19-4.63-.36-5.63-3Z"/>
  <path class="cls-40" d="M847.94,760.79c1.46-3.3,4.01-5.81,6.72-7.94,7.37-5.79,13.51-12.82,20.17-19.32,18.69-18.25,36.96-36.94,56.04-54.77,12.78-11.94,24.55-24.88,37.51-36.58,13.36-12.06,25.33-25.52,38.66-37.55,5.51-4.97,10.14-11.07,16.87-14.65v17c-1.6.19-2.68,1.21-3.77,2.26-8.62,8.3-17.31,16.52-25.85,24.89-20.43,20.01-40.46,40.44-61.29,60.02-13.21,12.42-25.5,25.77-38.9,37.95-8.5,7.72-16.47,15.95-24.71,23.93-1.41,1.37-3.09,2.6-3.44,4.76-4.04,3.49-13.95,3.49-18,0Z"/>
  <path class="cls-19" d="M1023.9,250.05c-4.97,2.22-8.53,6.33-12.26,9.95-23.3,22.59-46.03,45.78-69.56,68.14-13.28,12.62-25.75,26.06-39.3,38.34-12.73,11.53-24.12,24.39-36.83,35.87-13.6,12.29-25.78,26.03-39.35,38.29-11.75,10.62-22.35,22.37-33.96,33.09-14.68,13.55-28.29,28.22-42.93,41.77-12.48,11.54-24.12,23.89-36.39,35.61-5.29,5.05-10.68,9.99-15.98,15.03-1.43,1.36-3.09,2.61-3.37,4.8-1.98,2.15-3.98,2.14-6,.06-.01-2.89,1.46-5.03,3.43-6.95,16.41-16.06,32.57-32.38,49.33-48.07,6.93-6.48,13.67-13.12,20.45-19.74,18.57-18.14,36.73-36.71,55.69-54.42,12.78-11.94,24.55-24.88,37.51-36.58,13.36-12.06,25.29-25.56,38.62-37.6,12.86-11.62,24.35-24.62,37.18-36.21,13.73-12.4,26-26.26,39.68-38.65,12.97-11.75,24.84-24.57,37.47-36.63,3.48-3.32,7.14-6.47,10.71-9.7,1.67-1.51,3.58-2.4,5.86-2.41v6Z"/>
  <path class="cls-52" d="M441.01.1c-.23,2-1.69,3.18-2.98,4.47-10.83,10.84-21.28,22.08-32.59,32.39-13.18,12.01-25.04,25.34-38.24,37.27-13.11,11.84-24.82,25.09-37.9,36.9-13.24,11.95-25.05,25.34-38.26,37.25-13.24,11.94-25.05,25.33-38.25,37.26-13.47,12.19-25.53,25.79-38.98,37.94-12.61,11.4-23.89,24.13-36.47,35.51-13.59,12.3-25.79,26.01-39.34,38.29-13.21,11.98-25.04,25.34-38.24,37.27-13.35,12.07-25.3,25.55-38.62,37.6-12.98,11.74-24.68,24.74-37.54,36.56-6.37,5.86-12.61,11.82-18.74,17.92-1.35,1.34-2.79,2.37-4.79,2.28v-2c1.6-.19,2.68-1.22,3.77-2.27,8.62-8.31,17.32-16.53,25.88-24.91,20.09-19.68,39.79-39.77,60.29-59.02,13.11-12.31,25.26-25.6,38.57-37.65,13.22-11.96,25.06-25.32,38.26-37.25,13.1-11.85,24.92-24.98,37.91-36.9,5.89-5.41,11.26-11.25,16.87-16.89,19.6-19.7,39.23-39.39,59.49-58.41,12.75-11.97,24.55-24.9,37.51-36.59,13.24-11.94,25.06-25.33,38.26-37.25,13.36-12.07,25.27-25.59,38.61-37.61,13.87-12.5,26.49-26.22,39.92-39.13.95-.92,1.72-2.02,2.57-3.04,1,0,2,0,3,0Z"/>
  <path class="cls-5" d="M.1,502c2.38-.31,3.65-2.2,5.18-3.69,18.9-18.54,37.45-37.44,56.78-55.52,12.78-11.95,24.57-24.9,37.53-36.61,13.36-12.07,25.31-25.57,38.64-37.62,13.12-11.85,24.84-25.1,37.91-36.94,13.47-12.2,25.56-25.8,39-37.97,12.86-11.64,24.36-24.63,37.2-36.23,13.36-12.07,25.38-25.49,38.65-37.61,7.5-6.86,14.64-14.06,21.91-21.13,1.47-1.43,2.92-2.76,5.15-2.63-2.01,3.66-5.54,5.96-8.43,8.72-16.49,15.76-32.28,32.24-48.9,47.84-11.9,11.18-22.96,23.19-35.01,34.17-14.04,12.79-26.79,26.9-40.79,39.69-13.04,11.92-24.82,25.11-37.89,36.94-13.47,12.2-25.55,25.79-38.99,37.96-12.85,11.64-24.36,24.63-37.19,36.22-13.48,12.18-25.57,25.77-39,37.95-8.77,7.95-16.92,16.49-25.43,24.67-1.83,1.76-3.67,3.4-6.3,3.78v-2Z"/>
  <path class="cls-68" d="M687.97,571c2-.02,4-.04,6-.06,7.01-.04,14.01-.08,21.02-.13,9.47-.75,18.96-.1,28.43-.34,1.98-.05,4,.36,5.94-.37,9.87-.09,19.73-.17,29.6-.26.81.14,1.61.28,2.89.5-7.8,6-16.58,9.81-23.88,15.82-4.19,5.36-10.09,8.5-15.69,12.01-23.72,14.89-47.28,30.04-71.19,44.64-6.49,2.7-11.59,7.6-17.48,11.26-30,18.64-59.92,37.42-89.74,56.36-.7.45-1.44.83-2.26,1.03-3.8,1.05-6.54,3.82-9.59,6.04-5.62,4.1-11.63,7.58-17.53,11.24-3.17,1.97-6.28,1.81-9.3-.27-6.54-4.5-13.31-8.65-19.88-13.09-10.12-6.56-20.2-13.19-30.11-20.08-10.95-6.55-21.41-13.86-32.07-20.85-7.36-5.46-15.53-9.71-22.88-15.2-7.16-4.55-14.38-9.03-21.26-14.01-8.46-5.86-17.52-10.82-25.8-16.95-10.12-6.49-20.09-13.22-30.11-19.88-9.5-5.76-18.58-12.17-27.84-18.3-1.91-1.26-4.1-2.36-4.31-5.09-3.42-2.43-6.83-4.86-10.25-7.29.06-.53.13-1.07.19-1.6h25.46c1.47-2.8,4.2-2.37,6.59-2.37,16.06,0,32.14-.72,48.16.61,5.43.45,10.47-1.47,15.76-1.55,16.05-.46,32.1-.1,48.13.68,7.15.35,14.2-.46,21.22-1.64,7.63-.3,15.26-.08,22.9-.18,6.1-.08,7.15-1.09,6.5-7.58-1.38-13.69-2.46-27.4-4.05-41.06-.39-1.9.05-3.83-.19-5.75-.17-.55-.28-1.1-.37-1.66-1.23-15.73-2.95-31.42-4.16-47.14-.69-10.7-.68-10.63-10.72-8.83-12.44,2.23-24.92,4.16-37.38,6.29-2.26.39-4.66.69-6.71-.96-12.76,1.46-25.36,3.92-37.99,6.2-7.37,1.04-14.76,1.99-22,3.83-8.76.81-17.36,2.6-25.99,4.19-19.66,3.31-39.33,6.63-58.99,9.94-22,3.68-43.99,7.35-65.99,11.03-1.56-.84-3.95,2.04-4.98-1.13-.25-3.1,1.79-5.62,2.19-8.56,6.25-18.57,12.91-37,19.06-55.61,9.9-29.98,20.26-59.8,30.57-89.64,4.72-13.66,9.4-27.34,14.2-40.97.68-1.93,1.75-3.56,2.85-5.22,8.04-23.2,16.13-46.39,24.09-69.61,4.47-13.02,8.73-26.1,13.09-39.15.68-2.84-.27-6.25,2.86-8.23,2.13-5.18,3.76-10.51,4.93-15.99.74-1.46,1.47-2.92,2.21-4.38,5.96-.08,11.93-.44,17.89.19,12.34.33,24.68.67,37.02,1,12.33.33,24.66.67,36.99,1,6,.1,12,.2,18,.3,6.31.93,12.65.81,19,.69,6.48.22,12.96.78,19.45.25,5.8,1.18,11.71-.22,17.51.75,4.67.07,9.35.13,14.02.2,10.75,1.21,21.57.67,32.66,1.26-.38,2.5-2.12,3.91-3.35,5.55-30.07,39.91-61.16,79.02-92.01,118.32-.71.91-1.32,1.9-1.98,2.85-20.59,25.65-40.97,51.47-60.59,77.87-4.86,6.2-9.71,12.4-14.57,18.6,10.46-2.25,20.28-5.51,29.86-9.49,17.03-5.99,34.05-11.97,51.08-17.96,8.6-2.44,17-5.44,25.26-8.87,9.76-2.89,19.35-6.23,28.76-10.12,9-3.22,18.01-6.43,27.01-9.65,1.14-2.36,3.14-3.44,5.63-3.8,15.85-6.85,32.57-11.26,48.74-17.21,11.23-4.42,22.56-8.55,34.07-12.18,6.49-1.53,12.3-4.89,18.64-6.81,2.93-.89,5.8-2.86,9.02-.81,1.64,1.98.78,4,.14,6.06-1.97,6.27-4.41,12.36-6.82,18.45-4.19,13.73-9.76,26.98-14.38,40.57-1.69,4.98-3.64,9.86-5.69,14.7-3.21,11.01-7.78,21.56-11.26,32.47-2.42,7.58-6.53,14.52-8.18,22.36-.21.46-.42.93-.61,1.4-3.09,8.59-5.6,17.4-9.72,25.61-.53,1.06-.58,2.25-.66,3.41-2.8,8.41-6,16.67-9.34,24.87-1.89,7.59-4.72,14.87-7.85,22.01-.89,2.03-1.44,4.01-1.66,6.15-5.8,14.81-10.89,29.88-16.37,44.81-1.21,3.3-2.47,6.53-5.66,8.51-2.64,8.2-2.64,8.28,6.22,8.1,16.63-.34,33.28.28,49.89-.97,5.91.47,11.81.16,17.71-.19,6.34-.04,12.68-.08,19.02-.13,9.19-.73,18.4-.1,27.6-.33,1.96-.05,3.95.34,5.86-.41,3.17.63,6.34.35,9.5-.07Z"/>
  <path class="cls-42" d="M552.16,564.99c6.26-17.28,12.51-34.56,18.78-51.83.28-.76.74-1.45,1.12-2.17,2.43-3.6,5.2-6.88,8.24-9.99,21.63-22.17,44.26-43.32,66.37-65,12.59-12.35,24.81-25.12,37.85-36.99,13.07-11.89,24.88-25.05,37.92-36.92,13.44-12.23,25.58-25.76,38.99-37.98,13.18-12.02,25.11-25.3,38.28-37.27,13.07-11.89,24.87-25.07,37.92-36.92,13.08-11.88,24.87-25.06,37.92-36.92,13.44-12.22,25.58-25.76,38.99-37.98,13.18-12.01,25.11-25.3,38.28-37.27,13.08-11.89,25.07-24.84,37.9-36.95,3.3-3.11,6.25-6.99,11.22-7.8,5.08,8.18,8.71,17.02,11.79,26.11-2.16.35-3.36,2.06-4.77,3.44-21.24,20.89-42.16,42.12-63.82,62.57-12.84,12.12-24.79,25.12-37.87,36.95-13.6,12.3-25.76,26.04-39.33,38.31-12.98,11.74-24.59,24.86-37.55,36.56-13.24,11.95-25.07,25.32-38.27,37.26-13.11,11.85-24.82,25.1-37.91,36.91-13.49,12.18-25.53,25.81-38.97,37.97-13.23,11.96-25.05,25.34-38.26,37.26-12.99,11.73-24.59,24.86-37.55,36.56-13.24,11.95-25.07,25.33-38.27,37.26-13.48,12.18-25.75,25.56-38.94,38.01-2.94,2.77-5.63,6.19-10.09,6.87Z"/>
  <path class="cls-29" d="M847.94,760.79c6,0,12,0,18,0,10.4.06,20.8.3,31.19.09,5.61-.11,10.37,1.38,14.42,5.21,2.7,3.99,3.64,8.37,3.44,13.18-.23,5.46-.04,10.93-.06,16.4-.03,10.93-5.02,16.36-15.99,17.44h-17c-12,0-24,0-35.99,0-22.66,0-45.32,0-67.99,0h-51.99c-6,0-12,0-18,0h-29.99c-6.67,0-13.33,0-20,0-5.67,0-11.33,0-17,0h-53.99c-14.66,0-29.33,0-43.99,0h-37.99c-10,0-20,0-29.99,0-6.67,0-13.33,0-20,0-17,0-33.99,0-50.99,0s-33.33,0-49.99,0c-1.9,1.56-4.14,2.08-6.52,2.08-15.81.02-31.61.3-47.42-.13-15.8.31-31.59.2-47.39.18-2.16,0-4.32.2-6.47-.17-7.37-.09-14.74.49-22.11.06-6.37-.15-12.73.26-19.1.23-5.44-.99-10.9.36-16.35-.11-1.81-.16-3.65.17-5.46-.21-7.55.17-15.1.21-22.65.2-3.53,0-6.87-.54-9.94-2.33-6.65-4.07-9.09-10.16-8.89-17.75.08-3.15.88-6.28.26-9.45-.09-6.09-1.1-12.21,2.04-18.02,2.88-5.33,7.4-8.36,13.07-8.71,10.09-.64,20.24-.61,30.36,0,16.52-.57,33.05-.37,49.58-.21,12.85-.12,25.69-.17,38.54-.1,1.8,0,3.62-.21,5.42.18,10.53-.25,21.07-.24,31.6-.18,1.8,0,3.62-.21,5.42.19,12.02-.17,24.03-.4,36.05-.08,16.15-.19,32.29-.13,48.44-.12,1.83,0,3.66-.11,5.49.11,15.35-.15,30.7-.14,46.06-.09,1.64,0,3.3-.22,4.94.14,17.65-.2,35.3-.29,52.95-.05,13.03-.24,26.07,0,39.11-.24,8.04.67,16.08-.23,24.12.15,2.75.13,5.68-.32,7.81,2.12,5.33,0,10.66,0,16,0,6.67,0,13.33,0,20,0,9.66,0,19.33,0,28.99,0,6,0,12,0,18,0,6.33,0,12.66,0,19,0,9.33,0,18.66,0,27.99,0h67.99c12,0,24,0,35.99,0,10.33,0,20.66,0,30.99,0Z"/>
  <path class="cls-3" d="M187.06,760.79c-8.77.06-17.53.11-26.3.17-10.65.08-16.6,5.99-16.7,16.56-.03,2.81-.11,5.62-.16,8.43-1.72,3.48-4.37,6.19-7.07,8.92-19.98,20.22-40.67,39.72-61,59.58-12.48,12.19-24.63,24.73-37.44,36.57-6.71,6.21-13.25,12.57-19.81,18.93-1.52,1.47-3.04,3.27-5.6,2.02-4.12-9.66-7.79-19.46-9-30,3.02-.79,5.28-2.74,7.42-4.85,23.01-22.67,45.72-45.64,69.12-67.89,13.39-12.74,26-26.28,39.67-38.69,12.84-11.66,24.34-24.64,37.19-36.23,13.37-12.06,25.31-25.56,38.63-37.61,13.35-12.08,25.29-25.58,38.62-37.63,13.23-11.96,25.01-25.4,38.29-37.25,13.18-11.77,24.81-25.08,38.02-36.79,11.32,6.93,22.42,14.19,33.22,21.9-.02,1.61-.79,2.79-1.96,3.86-10.88,10.04-20.76,21.13-31.64,31.14-14.45,13.29-27.72,27.79-42.15,41.06-12.01,11.04-22.98,23.12-34.98,34.12-13.86,12.7-26.92,26.2-40.25,39.44-1.83,1.82-4.13,2.75-6.11,4.23Z"/>
  <path class="cls-3" d="M432.02,465c15.01-2.64,30.01-5.38,45.04-7.88,11.28-1.88,11.3-1.74,11.86,9.87.02.33-.06.66-.09.99-1.83,1.17-3.58,2.43-5.11,3.99-18.18,18.56-37.25,36.21-55.74,54.46-14.09,13.92-28.43,27.6-42.42,41.63-1.17,1.17-2.44,2.26-3.69,4.13,3.25,1.15,6.36.41,9.34.67,2.23.2,4.81-.48,6.11,2.26-7.91,1.02-15.86.62-23.79.72-15.73.19-31.45.2-47.18.29-1.51-.43-3.81.66-4.42-1.28-.55-1.76,1.53-2.75,2.66-3.86,21.51-21.23,42.73-42.78,64.73-63.51,13.18-12.43,25.71-25.48,38.75-38.03,1.43-1.37,2.65-2.96,3.97-4.45Z"/>
  <path class="cls-57" d="M284.94,299.05c-8.26,24.34-16.47,48.7-24.79,73.02-13.25,38.78-26.57,77.54-39.87,116.3-.32.92-.79,1.79-1.2,2.69-.69.29-.93,1.54-2.02.95,0-3.63,2.01-6.65,2.98-9.99,2.13-3.8,2.02-8.54,5.01-11.98-.9-2.22,1.16-3.94,1.01-6.03,4.22-8.54,5.68-18.02,9.09-26.83.66-1.7,1.23-3.44,1.84-5.16,3.02-9.15,6.03-18.29,9.05-27.44.54-1.55.85-3.21,2-4.49-.77-4.21,2.7-7.25,3.05-11.15.94-1.51.72-3.49,1.96-4.88,3.45-8.52,5.06-17.67,9-26.02,1.7-5.94,5.26-11.37,4.96-17.87,3.06-3.08,3.13-7.51,5.04-11.11,1.66-4.97,3.32-9.94,4.98-14.9,1.28-2.59,1.72-5.5,3.02-8.08.33-.68.67-1.35,1-2.03.34-1.33.68-2.67,1.01-4,.96-.33,1.92-.65,2.89-.98Z"/>
  <path class="cls-8" d="M253.04,384.05c.05,1.91-.49,3.58-1.96,4.88.15-1.83,0-3.78,1.96-4.88Z"/>
  <path class="cls-15" d="M248.03,400.09c-.56,1.55-.6,3.32-2,4.49-.26-1.91-.37-3.75,2-4.49Z"/>
  <path class="cls-66" d="M678.47,571.07c-11.14,1.14-22.31.77-33.47.74,3.89-1.68,8.01-.37,11.98-.91,7.16.06,14.32.12,21.49.17Z"/>
  <path class="cls-47" d="M297.04,257.06c-.33,2.93-.95,5.75-3.01,8.03.31-2.94.93-5.76,3.01-8.03Z"/>
  <path class="cls-9" d="M289.17,280c-.54,2.9-1.03,5.82-3.14,8.12.35-2.97.88-5.88,3.14-8.12Z"/>
  <path class="cls-66" d="M300.04,813.11h53.99c-.3,1.98-1.81,3.13-3.09,4.42-10.71,10.73-21.07,21.86-32.26,32.06-13.31,12.14-25.3,25.59-38.63,37.65-12.99,11.75-24.6,24.88-37.57,36.58-13.25,11.96-25.08,25.34-38.29,37.28-13.49,12.19-25.65,25.7-38.99,37.99-6.12,5.64-12.13,11.38-18.05,17.23-1.29,1.28-2.79,2.43-3.09,4.41-14.34-2.59-28.05-7.11-41.04-13.72-1.39-3.33,1.33-4.89,3.09-6.67,14.77-14.91,29.93-29.41,44.88-44.12,19.94-19.63,40.07-39.05,60.07-58.61,12.38-12.1,24.33-24.67,37.13-36.32,13.69-12.46,26.33-25.95,39.65-38.76,3.71-3.57,7.6-6.97,12.18-9.43Z"/>
  <path class="cls-4" d="M324.98,182.05c-.51,2.9-1.45,5.65-2.86,8.23-.46-2.27-1.34-.61-2.08-.23.09-3.2,1.69-5.98,2.92-8.76,1.02-2.32,1.19.82,2.02.75Z"/>
  <path class="cls-36" d="M303.17,237.58c.56-1.75,1.12-3.5,1.68-5.26.83,2.17.15,3.89-1.68,5.26Z"/>
  <path class="cls-49" d="M272.04,329.05c-1.15,3.94-.78,8.57-5.04,11.11,1.82-3.64,2.47-7.81,5.04-11.11Z"/>
  <path class="cls-69" d="M280.04,306.07c-.34,2.94-.97,5.78-3.02,8.08.29-2.96.91-5.8,3.02-8.08Z"/>
  <path class="cls-4" d="M350,161.88c-5.96-.06-11.93-.13-17.89-.19.97-.28,1.95-.56,2.92-.85,4.95.85,10.08-.76,14.97,1.03Z"/>
  <path class="cls-45" d="M749.35,570.11c-11.44,1.07-22.91.73-34.37.71,3.21-1.6,6.67-.46,9.98-.9,7.67-.06,15.33-.12,23-.18.46.12.92.25,1.39.37Z"/>
  <path class="cls-16" d="M497.98,165.88c-5.85.05-11.71.4-17.51-.75,5.83.32,11.74-.96,17.51.75Z"/>
  <path class="cls-37" d="M217.05,492c.93.23.32-2.83,2.02-.95-.52,2.84-1.21,5.63-3,7.99-1.44-2.59-.57-4.87.97-7.05Z"/>
  <path class="cls-48" d="M225.04,470.04c-2,3.85-2.06,8.52-5.01,11.98,1.2-4.19,1.03-8.95,5.01-11.98Z"/>
  <path class="cls-42" d="M300.04,813.11c-.63,2.84-2.88,4.55-4.92,6.11-6.13,4.68-11.18,10.46-16.64,15.81-19.75,19.34-39.12,39.08-59.27,57.99-12.76,11.97-24.57,24.9-37.53,36.61-13.61,12.3-25.77,26.06-39.36,38.32-12.88,11.62-24.62,24.35-37.11,36.34-.83.8-1.46,1.8-2.19,2.71-10.89-4.36-20.48-10.95-29.99-17.65-1.03-.73-2-1.56-3-2.34-1.83-3.13.44-4.95,2.22-6.9,8.55-9.35,18.47-17.29,27.33-26.34,20.27-20.71,41.43-40.52,62.16-60.77,12.14-11.87,23.84-24.22,36.39-35.64,13.44-12.23,25.93-25.4,38.88-38.11,2.69-2.64,5.97-4.18,9.03-6.16h53.99Z"/>
  <path class="cls-23" d="M151.08,810.94c6.61,3.16,13.67,1.7,20.56,1.98,3.8.16,7.62.13,11.43.19,1.87,2.68,0,4.54-1.7,5.98-15.52,13.12-28.31,29.07-43.86,42.15-.64.54-1.22,1.13-1.8,1.73-21.68,22.3-44.61,43.34-66.59,65.34-8.33,8.34-17.01,16.36-25.47,24.59-1.57,1.53-3.15,3.09-5.67,2.06-5.37-6.5-10.47-13.17-13.94-20.94-.62-2.39.44-4.22,2.11-5.71,17.25-15.43,32.66-32.79,49.97-48.15,1-.89,1.96-1.8,2.89-2.76,20.88-21.76,43.46-41.77,64.44-63.43,2.04-2.11,4.04-4.66,7.63-3.03Z"/>
  <path class="cls-53" d="M151.08,810.94c-2.19.26-3.42,1.94-4.83,3.33-22.17,21.83-44.03,43.99-66.62,65.37-13.06,12.36-25.42,25.4-38.54,37.66-5.83,5.44-11.98,10.52-17.05,16.73-5.03-6.68-8.12-14.33-11.06-22.06.79-.6,1.65-1.14,2.36-1.82,10.87-10.5,21.77-20.98,32.57-31.55,19.71-19.3,39.05-38.99,59.14-57.88,11.14-10.48,21.76-21.46,32.79-32.04,1.2-1.15,2.28-2.46,4.06-2.72.06,2.98.33,5.98.12,8.94-.48,6.65,1.8,11.98,7.05,16.05Z"/>
  <path class="cls-58" d="M246.05,813.11c-.41,2.15-2,3.36-3.6,4.59-1.31,1.01-2.64,2.03-3.82,3.19-22.88,22.51-45.44,45.37-68.73,67.46-13.52,12.83-26.18,26.52-39.98,39.02-12.84,11.63-24.43,24.5-37.15,36.2-6.61,6.08-13.1,12.27-19.45,18.61-1.4,1.4-3.02,2.67-3.29,4.85-4.75-3.18-8.82-7.16-13.01-11.01-.91-2.47.99-3.72,2.37-5.03,26.96-25.54,53.26-51.75,79.89-77.63,7.4-7.19,14.89-14.29,22.21-21.56,17.48-17.37,35.7-34,52.84-51.73,2.8-2.89,6.1-5.15,9.7-6.96,7.34,0,14.68,0,22.01,0Z"/>
  <path class="cls-62" d="M37.98,954.96c.91-.72,1.89-1.37,2.72-2.18,14.3-13.94,28.59-27.88,42.86-41.85,17.13-16.76,33.89-33.91,51.45-50.21,13.18-12.25,25.61-25.22,38.47-37.77,3.27-3.19,8.03-4.99,9.59-9.85h21.97c1.12,2.81-.99,4.3-2.51,5.97-4.26,4.67-9.37,8.48-13.78,12.97-22.27,22.64-45.42,44.38-68.09,66.61-13.4,13.15-26.49,26.64-40.3,39.35-9.06,8.34-17.59,17.18-26.45,25.71-1.67,1.61-3.19,3.48-5.86,3.32-3.46-3.93-7.41-7.46-10.06-12.06Z"/>
  <path class="cls-62" d="M48.04,967.03c9.07-9.95,18.64-19.4,28.54-28.52,7.82-7.21,15.19-14.91,22.79-22.37,16.85-16.54,33.38-33.41,50.69-49.46,12.81-11.89,24.7-24.68,37.47-36.58,5.96-5.55,12.16-10.81,17.51-16.98h19.01c-1.18,2.45-2.8,4.48-5.13,5.97-1.24.8-2.33,1.87-3.39,2.92-22.88,22.52-45.44,45.39-68.73,67.47-13.41,12.71-25.95,26.3-39.63,38.68-12.97,11.74-24.82,24.58-37.47,36.61-4.09,3.89-8.43,7.51-12.65,11.25-3.28-2.71-6.28-5.71-8.99-8.99Z"/>
  <path class="cls-62" d="M602.02,428.01c6.17-18.5,12.74-36.86,19.88-55.02,12.02-13.62,26.03-25.22,38.76-38.13,16.59-16.82,33.64-33.2,50.7-49.54,12.26-11.75,23.87-24.16,36.41-35.58,13.92-12.67,26.53-26.68,40.41-39.35,12.68-11.57,24.15-24.35,36.82-35.88,13.44-12.22,25.59-25.74,38.99-37.94,12.94-11.78,24.61-24.83,37.54-36.57,13.57-12.32,25.96-25.82,39.31-38.33,5.46-5.12,11.04-10.11,16.31-15.42,1.33-1.34,2.79-2.37,4.8-2.28,6.71,4.67,12.54,10.21,17.06,17.06,0,1.21-.3,2.28-1.22,3.15-6.5,6.21-12.53,12.87-19.32,18.81-9.54,8.33-17.89,17.91-27.1,26.58-15.76,14.84-30.72,30.51-46.51,45.3-12.4,11.62-23.88,24.18-36.45,35.57-13.71,12.43-26.05,26.24-39.72,38.65-10.99,9.98-20.98,20.93-31.85,30.99-15.4,14.26-29.72,29.63-45.08,43.9-12.33,11.46-23.66,23.92-36.11,35.21-13.7,12.44-26.06,26.23-39.72,38.66-12.83,11.67-24.59,24.38-37.15,36.29-4.7,4.46-9.95,8.32-14.07,13.4-.63.78-1.68,1.07-2.72.47Z"/>
  <path class="cls-10" d="M961.96,43.98c-5.63,6.59-12.08,12.32-18.43,18.19-9.65,8.93-18.46,18.77-28.06,27.75-14.84,13.88-28.74,28.71-43.62,42.5-12.71,11.78-24.33,24.65-37.17,36.25-13.48,12.18-25.54,25.8-38.99,37.96-12.74,11.51-24.15,24.36-36.83,35.88-13.81,12.55-26.29,26.46-40.07,39-12.83,11.67-24.34,24.65-37.18,36.23-13.37,12.06-25.44,25.41-38.62,37.62-5.49,5.09-10.97,10.18-16.27,15.46-1.36,1.35-2.82,2.33-4.82,2.2,1.84-8.04,5.28-15.52,8.02-23.25,3.77-10.66,7.77-21.24,11.67-31.85,4.11-2.85,7.96-6.09,11.41-9.62,20.26-20.71,41.42-40.49,62.11-60.76,15.45-15.14,30.58-30.63,46.4-45.38,13.16-12.27,25.4-25.45,38.48-37.76,25.69-24.17,50.55-49.2,75.97-73.64,10.2-9.8,20.23-19.77,30.32-29.68,10.09-9.92,20.85-19.13,30.54-29.46,1.39-1.49,2.92-2.76,5.15-2.63,7.44,3.96,14.23,8.8,20,15Z"/>
  <path class="cls-39" d="M589.3,315.2c-16.21,6.19-32.56,11.97-49.2,16.88-2.44-1.77-2.56-1.98-.26-4.35,5.1-5.26,10.05-10.71,15.57-15.5,12.23-10.6,22.99-22.66,34.68-33.79,26.99-25.71,53.4-52.01,80.19-77.92,12.32-11.92,24.29-24.18,36.72-35.98,26.07-24.74,51.5-50.14,77.36-75.1,12.57-12.14,24.54-24.91,37.49-36.62,17.29-15.64,32.78-33.1,50.27-48.51.89-.78,1.95-1.27,2.81-2.05,8.47,1.37,16.79,3.41,24.97,6,1.16,2.61-.07,4.62-1.88,6.2-16.03,14.03-29.92,30.29-45.98,44.28-.75.66-1.48,1.34-2.18,2.06-21.31,21.99-43.72,42.87-65.56,64.32-14.24,13.98-28.19,28.3-42.85,41.83-12,11.07-23.01,23.12-35.03,34.12-14.13,12.93-27.05,27.08-41.13,40.01-12.02,11.05-22.99,23.13-34.99,34.15-12.14,11.15-23.68,22.89-35.33,34.53-1.85,1.85-4.75,2.62-5.67,5.44Z"/>
  <path class="cls-54" d="M582.11,483.01c3.01-8.34,6.01-16.68,9.02-25.02,7.41-9.92,17.14-17.58,25.71-26.36,17.67-18.12,36.14-35.44,54.29-53.06,12.42-12.06,24.34-24.65,37.14-36.3,13.69-12.45,26.06-26.23,39.71-38.67,12.81-11.68,24.41-24.58,37.21-36.23,13.44-12.23,25.6-25.75,39.01-37.96,12.7-11.56,24.18-24.34,36.85-35.88,13.93-12.68,26.55-26.68,40.43-39.36,12.68-11.58,24.16-24.36,36.84-35.89,13.44-12.23,25.91-25.41,38.9-38.08,2.28-2.22,5-3.87,7.25-6.1,1.25-1.24,2.78-1.83,4.56-1.06,3.04,2.84,4.79,6.58,7,10-.24,2.48-1.68,4.23-3.37,5.93-18.33,18.4-37.24,36.2-55.76,54.4-9.49,9.32-18.82,18.83-28.57,27.9-16.34,15.2-31.63,31.48-47.91,46.7-12.05,11.26-23.24,23.38-35.4,34.49-14.02,12.81-26.83,26.86-40.8,39.68-12.28,11.27-23.46,23.63-35.72,34.88-14.12,12.95-27.06,27.1-41.15,40.04-11.78,10.82-22.57,22.64-34.33,33.44-14.35,13.19-27.58,27.52-41.9,40.71-12.75,11.74-24.61,24.34-37.07,36.36-2.04,1.97-4.06,3.94-6.53,5.39-1.81,1.06-3.59,1.91-5.41.05Z"/>
  <path class="cls-3" d="M589.3,315.2c-1.42-2.51.76-3.69,2.05-4.97,22.38-22.12,44.59-44.41,67.34-66.14,7.34-7.01,14.61-14.09,21.87-21.17,17.88-17.43,35.33-35.32,53.6-52.32,12.93-12.04,24.8-25.13,37.88-36.96,13.47-12.19,25.55-25.8,38.99-37.96,12.74-11.52,24.13-24.39,36.84-35.88,13.6-12.3,26.04-25.75,39.3-38.37,4.44-4.22,9.78-7.53,12.73-13.18,5.33,2.31,11.23,3.25,16.07,6.72,2.07,3.16-.4,4.99-2.19,6.8-7.15,7.21-14.36,14.33-21.87,21.18-8.86,8.06-16.81,17.11-25.58,25.28-15.35,14.3-29.71,29.63-45.08,43.88-12.09,11.22-23.24,23.38-35.4,34.49-13.9,12.69-26.55,26.66-40.41,39.36-12.29,11.26-23.48,23.62-35.73,34.87-14.11,12.96-27.08,27.09-41.17,40.03-12.28,11.27-23.85,23.22-35.62,34.98-3.02,3.02-7.29,4.03-9.94,7.34-11.23,4-22.45,8.01-33.68,12.01Z"/>
  <path class="cls-42" d="M582.11,483.01c3.35-.03,5.16-2.79,7.63-4.36.96-.61,1.69-1.6,2.52-2.41,23.12-22.78,45.93-45.89,69.48-68.23,12.81-12.15,24.79-25.13,37.87-36.95,13.24-11.96,25.06-25.34,38.27-37.26,13.36-12.07,25.29-25.57,38.62-37.62,13.23-11.96,25.07-25.33,38.27-37.26,13.11-11.85,24.83-25.1,37.91-36.92,13.11-11.84,24.83-25.09,37.91-36.91,13.6-12.3,25.76-26.04,39.33-38.32,12.86-11.63,24.32-24.67,37.22-36.19,9.94-8.88,18.7-18.94,28.88-27.54,2.64,2.91,4.02,6.58,5.93,9.93-2.49,4.34-7.02,6.55-10.43,9.94-22.71,22.51-45.2,45.25-68.41,67.23-13.19,12.49-25.5,25.86-38.95,38.02-13.11,11.86-24.84,25.11-37.92,36.93-13.24,11.96-25.07,25.35-38.28,37.28-13,11.73-24.6,24.87-37.56,36.58-13.62,12.29-25.77,26.05-39.35,38.33-12.99,11.75-24.6,24.87-37.56,36.58-13.37,12.07-25.31,25.58-38.64,37.62-12.88,11.62-24.36,24.64-37.2,36.24-13.74,12.4-26.3,25.96-39.65,38.75-1.79,1.71-3.94,3.04-5.93,4.55,2.89-9.49,6.34-18.78,10.05-27.98Z"/>
  <path class="cls-54" d="M989.02,73.04c-4.01,3.49-8.21,6.78-12,10.49-22.72,22.26-45.03,44.95-68.12,66.8-12.95,12.25-25.03,25.38-38.23,37.32-13.48,12.19-25.54,25.81-39,37.97-12.5,11.29-23.68,23.91-36.13,35.19-13.72,12.42-26.05,26.24-39.72,38.66-13.08,11.89-24.83,25.11-37.91,36.95-13.47,12.2-25.56,25.79-39,37.97-12.98,11.76-24.59,24.88-37.56,36.58-13.25,11.95-25.26,25.13-38.27,37.29-3.73,3.48-7.31,7.29-11.95,9.72,3.11-9.94,6.38-19.82,10.64-29.34,1.04.18,2.07.1,2.75-.76,3.96-4.99,9.2-8.65,13.59-13.14,18.4-18.81,37.74-36.64,56.38-55.19,16.99-16.91,34.17-33.63,51.47-50.21,12.86-12.33,25-25.39,38.2-37.34,13.35-12.08,25.31-25.56,38.63-37.61,12.86-11.63,24.37-24.62,37.2-36.22,13.48-12.19,25.55-25.79,38.99-37.96,12.98-11.75,24.61-24.84,37.54-36.58,13.57-12.32,25.89-25.91,39.35-38.3,7.11-6.55,13.94-13.34,20.86-20.07,1.2-1.17,2.32-2.44,4.22-2.28,3.67,2.57,5.74,6.42,8.06,10.06Z"/>
  <path class="cls-53" d="M941.96,28.98c-7.29,8.22-15.04,15.98-23.28,23.26-1.37,1.21-2.77,2.39-4.07,3.67-23.13,22.78-45.94,45.88-69.49,68.22-12.69,12.03-24.53,24.92-37.52,36.59-13.5,12.13-25.45,25.82-38.92,37.92-12.53,11.26-23.7,23.86-36.12,35.18-14.03,12.8-26.79,26.9-40.79,39.69-12.8,11.69-24.45,24.52-37.2,36.21-3.71,3.4-6.66,8.67-12.99,8.18,2.67-7.88,5.34-15.76,8.01-23.64-.2-2.49,1.51-3.94,3.02-5.48,21.98-22.52,45.06-43.94,67.41-66.09,8.02-7.95,16.21-15.79,24.32-23.68,16.95-16.48,33.76-33.11,50.81-49.47,12.38-11.87,24.11-24.4,36.79-35.94,13.8-12.57,26.31-26.44,40.07-39.01,12.8-11.69,24.58-24.39,37.17-36.26,5.32-5.02,10.89-9.78,15.97-15.06,1.06-1.1,2.36-1.83,3.81-2.3,4.48,2.44,9.35,4.23,13,8Z"/>
  <path class="cls-3" d="M928.96,20.98c-2.33,5.61-7.21,9.12-11.5,12.86-11.19,9.75-20.95,20.92-31.81,30.97-15.4,14.23-29.69,29.6-45.04,43.85-11.96,11.1-22.96,23.16-35,34.13-14.03,12.78-26.77,26.88-40.76,39.66-12.78,11.69-24.32,24.62-37.15,36.21-13.72,12.39-26,26.25-39.67,38.63-11.98,10.85-22.97,22.65-34.63,33.8-1.19,1.14-2.54,2.12-3.82,3.18-8.87,2.98-17.74,5.95-26.62,8.93.2-1.81,1.29-2.98,2.71-3.99,1.21-.86,2.39-1.81,3.46-2.85,20.2-19.83,40.18-39.89,60.62-59.47,16.24-15.55,31.82-31.78,48.24-47.11,12.79-11.95,24.56-24.91,37.53-36.61,13.25-11.95,25.07-25.35,38.29-37.28,13.12-11.85,24.83-25.12,37.92-36.93,13.5-12.18,25.6-25.75,39-37.98,7.51-6.86,14.65-14.05,21.93-21.13,1.42-1.38,3.03-2.67,3.3-4.85,4.87.82,8.86,3.57,12.99,6Z"/>
  <path class="cls-62" d="M980.95,62.97c-6.93,7.87-14.35,15.26-22.2,22.21-1.62,1.43-3.25,2.85-4.79,4.36-23.01,22.65-45.7,45.65-69.13,67.86-12.57,11.91-24.32,24.66-37.15,36.25-13.48,12.18-25.54,25.8-38.98,37.95-12.62,11.4-23.89,24.14-36.47,35.52-13.96,12.63-26.49,26.73-40.41,39.35-12.72,11.54-24.12,24.39-36.83,35.87-13.6,12.29-25.78,26.02-39.35,38.3-11.99,10.85-22.96,22.69-34.64,33.83-4.81,4.59-9.72,9.07-14.59,13.59-1.41,1.31-2.82,2.57-4.64.57-.09-.27,0-.49.24-.63,17.67-16.85,34.36-34.7,52.48-51.09.62-.56,1.21-1.14,1.81-1.73,22.77-22.44,45.25-45.19,68.43-67.19,13.65-12.96,26.46-26.78,40.38-39.41,12.84-11.65,24.35-24.65,37.2-36.24,13.37-12.06,25.31-25.57,38.64-37.62,12.99-11.74,24.59-24.87,37.56-36.58,13.61-12.29,25.77-26.05,39.35-38.33,12.99-11.75,24.59-24.88,37.59-36.55,8.06-7.23,15.22-15.37,23.58-22.25.64.64,1.29,1.29,1.93,1.93Z"/>
  <path class="cls-39" d="M874.93,2.26c-1.93,4.67-6.02,7.51-9.58,10.63-3.26,2.85-6.43,5.78-9.51,8.81-21.95,21.6-43.58,43.55-65.96,64.7-12.59,11.9-24.33,24.66-37.16,36.26-13.48,12.19-25.55,25.8-38.99,37.96-12.61,11.41-23.9,24.14-36.48,35.53-13.97,12.64-26.5,26.73-40.42,39.36-12.84,11.65-24.34,24.65-37.19,36.23-13.37,12.06-25.4,25.46-38.64,37.61-6.5,5.97-12.82,12.1-19.06,18.33-1.12,1.12-3.48,2.02-1.84,4.42-1.63,1.69-3.79,2.04-5.97,2.34-.36-2.44.99-4.06,2.59-5.63,19.25-18.89,38.21-38.07,57.83-56.56,8.85-8.33,17.41-16.93,26.11-25.4,16.82-16.37,33.2-33.19,50.41-49.14,12.71-11.78,24.33-24.65,37.17-36.24,13.36-12.07,25.31-25.56,38.63-37.61,12.98-11.74,24.59-24.87,37.55-36.57,13.61-12.29,25.77-26.04,39.33-38.32,13.1-11.86,25.17-24.73,37.79-37.04,3.26-3.18,8.09-4.93,9.43-9.94,1.32.09,2.64.19,3.96.28Z"/>
  <path class="cls-33" d="M582.99,760.79c-10.66,0-21.31,0-31.97,0-1.12-2.81,1-4.31,2.52-5.97,4.27-4.68,9.39-8.49,13.8-12.98,22.05-22.45,45.03-43.94,67.44-66.01,10.89-10.73,21.65-21.63,33.04-31.86.89-.8,1.37-1.87,2.16-2.73,26.06-16.45,52.11-32.92,78.2-49.33,3.2-2.01,6.14-4.47,9.78-5.74.13,2.69-1.83,4.16-3.47,5.78-20.85,20.53-41.39,41.4-62.69,61.45-12.84,12.09-24.77,25.1-37.82,36.92-13.57,12.29-25.77,25.98-39.31,38.25-9.75,8.83-18.75,18.39-28.23,27.47-1.42,1.36-3.1,2.59-3.44,4.76Z"/>
  <path class="cls-10" d="M187.06,760.79c.3-1.98,1.81-3.13,3.09-4.41,10.83-10.84,21.28-22.09,32.6-32.4,13.19-12.01,25.04-25.36,38.25-37.28,13.36-12.07,25.29-25.57,38.62-37.62,13.23-11.96,25.33-25.03,38.21-37.32,1.91-1.82,4.21-3.23,6.33-4.82,10.32,6.23,20.39,12.85,30.18,19.89.1,3.55-2.65,5.28-4.91,7.08-2.87,2.3-5.52,4.8-8.07,7.41-21.61,22.13-44.2,43.27-66.27,64.93-12.45,12.22-24.53,24.86-37.48,36.55-6.74,6.09-12.44,13.44-20.54,18-16.67,0-33.34,0-50.01,0Z"/>
  <path class="cls-62" d="M237.07,760.79c3.3-5.95,8.63-10.11,13.5-14.56,3.3-3.02,6.65-6,9.85-9.15,21.81-21.46,43.29-43.27,65.53-64.27,12.82-12.11,25.01-24.84,37.78-36.97,3.36-3.19,7.06-6.02,10.61-9.02,8.91,5.27,17.54,10.97,25.91,17.06.02,2.4-1.46,3.96-3,5.52-19.74,20.02-40.25,39.24-60.29,58.94-9.36,9.2-18.89,18.26-28.12,27.59-7.26,7.34-15.35,13.77-22.4,21.3-1.54,1.64-3.74,2.16-5.39,3.55-14.66,0-29.32,0-43.97,0Z"/>
  <path class="cls-10" d="M397.31,575.12c-5.49-.05-10.99-.08-16.48-.16-1.12-.02-2.55.28-3.03-1.11-.44-1.27.61-2.09,1.46-2.92,24.7-24.24,49.14-48.76,74.21-72.62,10-9.52,19.63-19.41,29.68-28.88,1.52-1.43,2.98-4.2,5.68-1.45,1.67,16.27,3.5,32.52,4.34,48.86-.5,1.49-1.67,2.46-2.74,3.5-9.78,9.52-19.32,19.28-29,28.9-6.13,6.09-13.08,11.33-18.84,17.81-1.07,1.21-2.64,2.05-3.1,4.33,5.11.88,10.21.25,15.25.41,2.66.09,5.33-.05,7.99.09,1.83.1,3.73.12,4.59,2.25-8.24,1.03-16.53.63-24.79.74-15.07.2-30.14.18-45.21.25Z"/>
  <path class="cls-65" d="M408.04,760.79c-17.99,0-35.99,0-53.98,0-1.38-2.64.18-4.49,1.82-6.17,3.72-3.8,7.4-7.63,11.51-11.06,6.01-5.01,11.31-10.81,16.8-16.38,17.18-17.42,35.48-33.69,52.39-51.38,2.05-2.14,4.11-4.65,7.69-2.93,10.92,6.58,21.54,13.61,31.91,21.01.02,4.13-3.33,6.06-5.89,8.17-5.16,4.24-9.83,8.96-14.42,13.75-13.59,14.16-28.38,27.07-42.11,41.08-1.66,1.69-3.64,2.87-5.73,3.91Z"/>
  <path class="cls-58" d="M281.04,760.79c3.11-5.88,8.61-9.57,13.09-14.18,1.84-1.9,4.09-3.4,5.98-5.26,22.55-22.17,44.73-44.73,67.74-66.41,10.89-10.26,20.9-21.44,32.39-31.07,7.07,4.44,14.31,8.62,20.94,13.72,1.2,2.5-.35,4.17-1.9,5.68-11.93,11.58-22.98,24.07-35.71,34.83-1.52,1.29-2.9,2.75-4.28,4.19-17.89,18.59-37.12,35.8-55.14,54.25-1.8,1.85-4.13,2.76-6.12,4.24h-36.99Z"/>
  <path class="cls-12" d="M669.97,641.23c-.54,3.91-3.3,6.49-5.85,9-19.39,19.2-38.56,38.64-58.47,57.29-12.27,11.5-23.81,23.72-36.04,35.23-6.29,5.92-13.02,11.38-18.6,18.03-13,0-25.99,0-38.99,0-1.45-2.88.39-4.76,2.15-6.5,14.03-13.82,27.94-27.77,42.82-40.69,1.38-1.2,2.78-2.35,3.95-3.75,14.26-9.07,28.48-18.21,42.79-27.2,22.04-13.86,44.15-27.62,66.23-41.42Z"/>
  <path class="cls-42" d="M318.04,760.79c.3-1.98,1.79-3.14,3.09-4.41,20.03-19.71,39.75-39.76,60.23-58.99,12.25-11.5,23.87-23.62,35.97-35.26,1.42-1.37,2.58-3.02,3.86-4.53,7.91,4.76,15.67,9.76,23.09,15.27-2.17.27-3.48,1.84-4.9,3.24-22.42,22.08-44.81,44.19-67.27,66.23-4.51,4.42-9.24,8.62-13.87,12.91-1.73,1.6-3.2,3.38-4.18,5.55-12.01,0-24.01,0-36.02,0Z"/>
  <path class="cls-2" d="M408.04,760.79c4.84-7.71,11.78-13.57,18.41-19.51,12.52-11.22,23.8-23.67,35.99-35.19,4.45-4.21,9.16-8.15,13.76-12.21,10.34,6.21,20.38,12.88,30.2,19.88.17,2.27-1.2,3.76-2.74,5.06-12.32,10.47-23.04,22.57-34.62,33.8-3.12,3.03-6.32,5.89-10.03,8.17h-50.97Z"/>
  <path class="cls-45" d="M459.01,760.79c.35-1.66.98-3.16,2.29-4.31,12.01-10.49,22.6-22.43,34.14-33.4,3.47-3.3,7.29-6.23,10.95-9.33,6.56,4.21,13.23,8.26,19.64,12.69,2.82,1.95,4.86,2.16,7.86.2,8.88-5.81,18.03-11.22,27.07-16.79-.2,2.41-2.05,3.71-3.57,5.19-13.6,13.31-27.23,26.59-40.86,39.87-1.79,1.74-3.48,3.55-4.5,5.87h-53.02Z"/>
  <path class="cls-62" d="M467.31,574.13c-9.62-.05-19.25-.08-28.87-.17-1.25-.01-2.96.53-3.54-1.02-.56-1.49.99-2.31,1.89-3.2,16.92-16.62,33.86-33.21,50.79-49.82,1.59-1.56,3.43-2.58,5.58-3.09,0,0-.05.01-.05.01.88,1.62-.05,3.49.7,5.13,1.55,16.34,3.07,32.69,4.71,49.02.2,2.04.03,3.07-2.37,3.06-9.61-.05-19.22.04-28.84.07Z"/>
  <path class="cls-10" d="M493.81,521.97c-1.07-1.59-.77-3.38-.7-5.13.93,1.61.81,3.37.7,5.13Z"/>
</svg>