<?xml version="1.0" standalone="no"?><!DOCTYPE svg PUBLIC "-//W3C//DTD SVG 1.1//EN" "http://www.w3.org/Graphics/SVG/1.1/DTD/svg11.dtd"><svg t="1724507688805" class="icon" viewBox="0 0 1024 1024" version="1.1" xmlns="http://www.w3.org/2000/svg" p-id="11698" xmlns:xlink="http://www.w3.org/1999/xlink" width="200" height="200"><path d="M512 442.181818a69.818182 69.818182 0 1 1-69.818182 69.818182 69.818182 69.818182 0 0 1 69.818182-69.818182m0-69.818182a139.636364 139.636364 0 1 0 139.636364 139.636364 139.636364 139.636364 0 0 0-139.636364-139.636364z" fill="#2c2c2c" p-id="11699"></path><path d="M364.450909 139.636364a12.334545 12.334545 0 0 1 6.516364 2.327272l51.665454 38.167273a148.945455 148.945455 0 0 0 178.734546 0l51.665454-38.167273a11.636364 11.636364 0 0 1 6.516364-2.327272h2.792727a403.083636 403.083636 0 0 1 90.763637 53.061818 12.334545 12.334545 0 0 1 3.723636 10.938182l-6.749091 64.465454A151.272727 151.272727 0 0 0 837.818182 423.796364l58.414545 26.298181a11.170909 11.170909 0 0 1 6.981818 8.61091 410.298182 410.298182 0 0 1 0 106.821818 11.636364 11.636364 0 0 1-6.981818 8.610909L837.818182 600.203636a151.04 151.04 0 0 0-88.669091 155.229091l6.749091 64.232728a12.334545 12.334545 0 0 1-3.723637 10.938181A389.12 389.12 0 0 1 709.585455 861.090909a405.643636 405.643636 0 0 1-46.545455 23.272727h-2.792727a12.334545 12.334545 0 0 1-6.516364-2.327272l-51.665454-38.167273a148.945455 148.945455 0 0 0-178.734546 0l-52.363636 38.167273a11.636364 11.636364 0 0 1-6.516364 2.327272h-2.792727a403.083636 403.083636 0 0 1-90.763637-53.061818 12.334545 12.334545 0 0 1-3.723636-10.938182l6.749091-64.465454A151.272727 151.272727 0 0 0 186.181818 600.203636l-59.345454-26.298181a11.170909 11.170909 0 0 1-6.981819-8.61091 410.298182 410.298182 0 0 1 0-106.821818 11.636364 11.636364 0 0 1 6.981819-8.610909L186.181818 423.796364a151.04 151.04 0 0 0 88.669091-155.229091l-6.749091-64.232728a12.334545 12.334545 0 0 1 3.723637-10.938181A389.12 389.12 0 0 1 314.414545 162.909091a405.643636 405.643636 0 0 1 46.545455-23.272727h2.792727m0-69.818182a76.8 76.8 0 0 0-29.556363 5.818182A495.010909 495.010909 0 0 0 279.272727 103.330909a474.530909 474.530909 0 0 0-51.432727 34.909091 82.850909 82.850909 0 0 0-30.254545 73.541818l6.981818 64.232727a82.152727 82.152727 0 0 1-47.941818 84.014546l-58.181819 26.065454a81.454545 81.454545 0 0 0-47.709091 63.301819 478.021818 478.021818 0 0 0 0 124.974545 81.454545 81.454545 0 0 0 47.476364 63.301818l58.414546 26.298182a82.152727 82.152727 0 0 1 47.941818 84.014546l-6.981818 64.465454a82.152727 82.152727 0 0 0 30.487272 73.541818 465.454545 465.454545 0 0 0 106.821818 62.370909 76.8 76.8 0 0 0 29.556364 5.818182 81.454545 81.454545 0 0 0 48.174546-16.058182l51.432727-38.4a80.523636 80.523636 0 0 1 95.883636 0l51.432727 38.4a81.454545 81.454545 0 0 0 48.174546 16.058182 76.8 76.8 0 0 0 29.556364-5.818182A495.010909 495.010909 0 0 0 744.727273 920.669091a474.530909 474.530909 0 0 0 51.432727-34.909091 82.850909 82.850909 0 0 0 30.254545-73.541818l-6.981818-64.232727a82.152727 82.152727 0 0 1 47.941818-84.014546l58.181819-26.065454a81.454545 81.454545 0 0 0 46.545454-63.301819 478.021818 478.021818 0 0 0 0-124.974545 81.454545 81.454545 0 0 0-46.545454-63.301818l-58.414546-26.298182a82.152727 82.152727 0 0 1-47.941818-84.014546l6.981818-64.465454a82.152727 82.152727 0 0 0-30.254545-73.541818 465.454545 465.454545 0 0 0-106.821818-62.370909A76.8 76.8 0 0 0 659.549091 69.818182a81.454545 81.454545 0 0 0-48.174546 16.058182l-51.432727 38.4a80.523636 80.523636 0 0 1-95.883636 0l-51.432727-38.4A81.454545 81.454545 0 0 0 364.450909 69.818182z" fill="#2c2c2c" p-id="11700"></path></svg>