<?xml version="1.0" standalone="no"?><!DOCTYPE svg PUBLIC "-//W3C//DTD SVG 1.1//EN" "http://www.w3.org/Graphics/SVG/1.1/DTD/svg11.dtd"><svg t="1724506740948" class="icon" viewBox="0 0 1024 1024" version="1.1" xmlns="http://www.w3.org/2000/svg" p-id="10242" xmlns:xlink="http://www.w3.org/1999/xlink" width="200" height="200"><path d="M896 64H192c-35.264 0-64 28.672-64 64v768c0 35.328 28.736 64 64 64h355.52a32 32 0 1 0 0-64H192V128h704v353.152a32 32 0 1 0 64 0V128c0-35.328-28.672-64-64-64z m-96 200a32 32 0 0 0-32-32H286.656a32 32 0 0 0 0 64H768a32 32 0 0 0 32-32zM286.656 422.656a32 32 0 0 0 0 64h315.52a32 32 0 1 0 0-64H286.72z m0 192a32 32 0 0 0 0 64H352a32 32 0 1 0 0-64H286.656z" fill="#dbdbdb" p-id="10243"></path><path d="M779.328 514.88a217.536 217.536 0 0 1 217.152 217.152 217.536 217.536 0 0 1-217.152 217.152 217.152 217.152 0 0 1 0-434.304z m0 51.776a166.208 166.208 0 0 0-165.952 165.952 165.76 165.76 0 0 0 165.952 165.952 165.824 165.824 0 0 0 165.952-165.952 166.208 166.208 0 0 0-165.952-165.952z" fill="#dbdbdb" p-id="10244"></path><path d="M768.384 832.128l1.344 1.344 0.64 0.64s0.768 0 0.768 0.704c0 0 0.64 0 0.64 0.704 0 0 0.64 0 0.64 0.64 0 0 0.768 0 0.768 0.704 0 0 0.64 0 0.64 0.704h12.352s0.64 0 0.64-0.64c0 0 0.768 0 0.768-0.704 0 0 0.64 0 0.64-0.64 0 0 0.64 0 0.64-0.768 0 0 0.768 0 0.768-0.64l0.64-0.64 0.704-0.768 0.64-0.64 94.08-93.312a18.24 18.24 0 0 0 0-25.408 18.24 18.24 0 0 0-25.408 0l-63.168 63.104v-132.224a18.176 18.176 0 0 0-17.792-17.856 18.176 18.176 0 0 0-17.856 17.92v132.16l-63.104-63.104a18.24 18.24 0 0 0-25.408 0 18.24 18.24 0 0 0 0 25.408l95.36 93.312z" fill="#dbdbdb" p-id="10245"></path></svg>