<?xml version="1.0" standalone="no"?><!DOCTYPE svg PUBLIC "-//W3C//DTD SVG 1.1//EN" "http://www.w3.org/Graphics/SVG/1.1/DTD/svg11.dtd"><svg t="1724508106716" class="icon" viewBox="0 0 1024 1024" version="1.1" xmlns="http://www.w3.org/2000/svg" p-id="13000" xmlns:xlink="http://www.w3.org/1999/xlink" width="200" height="200"><path d="M512 126.4264997A385.5735003 385.5735003 0 1 1 126.4264997 512 385.5735003 385.5735003 0 0 1 512 126.4264997m0-77.1146997a462.6882 462.6882 0 1 0 462.6882 462.6882A462.6882 462.6882 0 0 0 512 49.3118z" p-id="13001" fill="#dbdbdb"></path><path d="M460.3331513 680.1100463m51.4098001-1e-8l0 0q51.40980011 0 51.4097992 51.40980011l0 0q0 51.40980011-51.4097992 51.4097992l0 0q-51.40980011 0-51.40980011-51.4097992l0 0q0-51.40980011 51.40980011-51.40980011Z" p-id="13002" fill="#dbdbdb"></path><path d="M659.2890773 362.14043311A152.687106 152.687106 0 0 0 537.7048996 243.8978926a154.22940029 154.22940029 0 0 0-175.05036841 98.4497677 39.5855456 39.5855456 0 0 0 25.70489962 51.4098001 38.81439889 38.81439889 0 0 0 46.78291809-25.7049005 77.11469971 77.11469971 0 0 1 98.4497668-46.26882 73.51601389 73.51601389 0 0 1 47.29701619 48.3252124 77.11469971 77.11469971 0 0 1-73.25896529 102.8195993 38.55735029 38.55735029 0 0 0-38.55734941 38.5573503v102.81960021a38.55735029 38.55735029 0 0 0 77.11469971 0V563.40980011a25.7048996 25.7048996 0 0 1 15.42294029-23.64850811 154.22940029 154.22940029 0 0 0 97.6786201-177.62085889z" p-id="13003" fill="#dbdbdb"></path></svg>