<?xml version="1.0" standalone="no"?><!DOCTYPE svg PUBLIC "-//W3C//DTD SVG 1.1//EN" "http://www.w3.org/Graphics/SVG/1.1/DTD/svg11.dtd"><svg t="1724506531300" class="icon" viewBox="0 0 1024 1024" version="1.1" xmlns="http://www.w3.org/2000/svg" p-id="4439" xmlns:xlink="http://www.w3.org/1999/xlink" width="200" height="200"><path d="M904.2 344.3c-21.5-50.7-52.2-96.3-91.3-135.4s-84.6-69.8-135.4-91.3C625 95.5 569.3 84.2 511.8 84.2S398.5 95.5 346 117.7c-50.7 21.5-96.3 52.2-135.4 91.3s-69.8 84.6-91.3 135.4c-22.2 52.5-33.5 108.3-33.5 165.8S97.1 623.5 119.3 676c21.5 50.7 52.2 96.3 91.3 135.4 39.1 39.1 84.6 69.8 135.4 91.3 52.5 22.2 108.3 33.5 165.8 33.5s113.3-11.3 165.8-33.5c50.7-21.5 96.3-52.2 135.4-91.3 39.1-39.1 69.8-84.6 91.3-135.4 22.2-52.5 33.5-108.3 33.5-165.8s-11.4-113.4-33.6-165.9zM511.8 876C310 876 145.9 711.8 145.9 510.1S310 144.2 511.8 144.2c201.7 0 365.9 164.1 365.9 365.9 0 201.7-164.2 365.9-365.9 365.9z" fill="#e6e6e6" p-id="4440" data-spm-anchor-id="a313x.search_index.0.i4.264a3a81fTUDJa" class="selected"></path><path d="M737 481H542V286c0-16.5-13.5-30-30-30s-30 13.5-30 30v195H287c-16.5 0-30 13.5-30 30s13.5 30 30 30h195v195c0 16.5 13.5 30 30 30s30-13.5 30-30V541h195c16.5 0 30-13.5 30-30s-13.5-30-30-30z" fill="#e6e6e6" p-id="4441" data-spm-anchor-id="a313x.search_index.0.i3.264a3a81fTUDJa" class="selected"></path></svg>