<?xml version="1.0" standalone="no"?><!DOCTYPE svg PUBLIC "-//W3C//DTD SVG 1.1//EN" "http://www.w3.org/Graphics/SVG/1.1/DTD/svg11.dtd"><svg t="1724506208260" class="icon" viewBox="0 0 1024 1024" version="1.1" xmlns="http://www.w3.org/2000/svg" p-id="2415" xmlns:xlink="http://www.w3.org/1999/xlink" width="200" height="200"><path d="M500.48 106.1888a416.9728 416.9728 0 1 0 416.9728 416.9728 417.4336 417.4336 0 0 0-416.9728-416.9728z m0 767.6928a350.72 350.72 0 1 1 350.72-350.72 350.72 350.72 0 0 1-350.72 350.72z" p-id="2416"></path><path d="M661.76 553.8816h-322.56a30.72 30.72 0 1 1 0-61.44h322.56a30.72 30.72 0 1 1 0 61.44z" p-id="2417"></path><path d="M500.48 715.1616a30.72 30.72 0 0 1-30.72-30.72v-322.56a30.72 30.72 0 0 1 61.44 0v322.56a30.72 30.72 0 0 1-30.72 30.72z" p-id="2418"></path></svg>